<mxfile host="Electron" modified="2023-11-23T09:44:11.940Z" agent="Mozilla/5.0 (Windows NT 10.0; Win64; x64) AppleWebKit/537.36 (KHTML, like Gecko) draw.io/22.1.2 Chrome/114.0.5735.289 Electron/25.9.4 Safari/537.36" etag="dFhndVWXgSHAqz9WXgHC" version="22.1.2" type="device">
  <diagram name="PÃ¡gina-1" id="QleZe3Fw3kXWE3mYf2bR">
    <mxGraphModel dx="1776" dy="2272" grid="1" gridSize="10" guides="1" tooltips="1" connect="1" arrows="1" fold="1" page="1" pageScale="1" pageWidth="827" pageHeight="1169" math="0" shadow="0">
      <root>
        <mxCell id="0" />
        <mxCell id="1" parent="0" />
        <mxCell id="swzMXFkPZU0f3SMOaOO9-18" style="edgeStyle=orthogonalEdgeStyle;rounded=0;orthogonalLoop=1;jettySize=auto;html=1;exitX=0.5;exitY=1;exitDx=0;exitDy=0;entryX=0.5;entryY=0;entryDx=0;entryDy=0;" parent="1" source="swzMXFkPZU0f3SMOaOO9-19" target="swzMXFkPZU0f3SMOaOO9-17" edge="1">
          <mxGeometry relative="1" as="geometry">
            <Array as="points">
              <mxPoint x="400" y="120" />
              <mxPoint x="540" y="120" />
            </Array>
          </mxGeometry>
        </mxCell>
        <mxCell id="swzMXFkPZU0f3SMOaOO9-1" value="EMPLEADO" style="rounded=0;whiteSpace=wrap;html=1;" parent="1" vertex="1">
          <mxGeometry x="340" y="-30" width="120" height="60" as="geometry" />
        </mxCell>
        <mxCell id="swzMXFkPZU0f3SMOaOO9-8" style="edgeStyle=orthogonalEdgeStyle;rounded=0;orthogonalLoop=1;jettySize=auto;html=1;exitX=1;exitY=0.5;exitDx=0;exitDy=0;entryX=0;entryY=0.5;entryDx=0;entryDy=0;" parent="1" source="swzMXFkPZU0f3SMOaOO9-2" target="swzMXFkPZU0f3SMOaOO9-1" edge="1">
          <mxGeometry relative="1" as="geometry">
            <Array as="points">
              <mxPoint x="240" />
              <mxPoint x="300" />
              <mxPoint x="300" y="-30" />
            </Array>
          </mxGeometry>
        </mxCell>
        <mxCell id="swzMXFkPZU0f3SMOaOO9-2" value="APELLID" style="ellipse;whiteSpace=wrap;html=1;" parent="1" vertex="1">
          <mxGeometry x="140" y="40" width="100" height="30" as="geometry" />
        </mxCell>
        <mxCell id="swzMXFkPZU0f3SMOaOO9-37" style="edgeStyle=orthogonalEdgeStyle;rounded=0;orthogonalLoop=1;jettySize=auto;html=1;exitX=1;exitY=0.5;exitDx=0;exitDy=0;entryX=0;entryY=0.25;entryDx=0;entryDy=0;" parent="1" target="swzMXFkPZU0f3SMOaOO9-1" edge="1">
          <mxGeometry relative="1" as="geometry">
            <mxPoint x="240" y="25" as="sourcePoint" />
          </mxGeometry>
        </mxCell>
        <mxCell id="swzMXFkPZU0f3SMOaOO9-85" style="edgeStyle=orthogonalEdgeStyle;rounded=0;orthogonalLoop=1;jettySize=auto;html=1;exitX=1;exitY=0.5;exitDx=0;exitDy=0;entryX=0;entryY=0.75;entryDx=0;entryDy=0;" parent="1" source="swzMXFkPZU0f3SMOaOO9-4" target="swzMXFkPZU0f3SMOaOO9-1" edge="1">
          <mxGeometry relative="1" as="geometry" />
        </mxCell>
        <mxCell id="swzMXFkPZU0f3SMOaOO9-4" value="&lt;u&gt;DNI&lt;/u&gt;" style="ellipse;whiteSpace=wrap;html=1;" parent="1" vertex="1">
          <mxGeometry x="140" y="-20" width="100" height="30" as="geometry" />
        </mxCell>
        <mxCell id="swzMXFkPZU0f3SMOaOO9-89" style="edgeStyle=orthogonalEdgeStyle;rounded=0;orthogonalLoop=1;jettySize=auto;html=1;exitX=0.75;exitY=1;exitDx=0;exitDy=0;entryX=0;entryY=0.5;entryDx=0;entryDy=0;" parent="1" source="swzMXFkPZU0f3SMOaOO9-5" target="swzMXFkPZU0f3SMOaOO9-64" edge="1">
          <mxGeometry relative="1" as="geometry" />
        </mxCell>
        <mxCell id="swzMXFkPZU0f3SMOaOO9-90" style="edgeStyle=orthogonalEdgeStyle;rounded=0;orthogonalLoop=1;jettySize=auto;html=1;exitX=0;exitY=0.75;exitDx=0;exitDy=0;entryX=0;entryY=0.5;entryDx=0;entryDy=0;" parent="1" source="swzMXFkPZU0f3SMOaOO9-5" target="swzMXFkPZU0f3SMOaOO9-86" edge="1">
          <mxGeometry relative="1" as="geometry" />
        </mxCell>
        <mxCell id="swzMXFkPZU0f3SMOaOO9-5" value="COCINERO" style="rounded=0;whiteSpace=wrap;html=1;" parent="1" vertex="1">
          <mxGeometry x="150" y="150" width="120" height="60" as="geometry" />
        </mxCell>
        <mxCell id="swzMXFkPZU0f3SMOaOO9-62" style="edgeStyle=orthogonalEdgeStyle;rounded=0;orthogonalLoop=1;jettySize=auto;html=1;exitX=0.75;exitY=1;exitDx=0;exitDy=0;entryX=0.5;entryY=0;entryDx=0;entryDy=0;" parent="1" source="swzMXFkPZU0f3SMOaOO9-11" target="swzMXFkPZU0f3SMOaOO9-12" edge="1">
          <mxGeometry relative="1" as="geometry" />
        </mxCell>
        <mxCell id="swzMXFkPZU0f3SMOaOO9-67" style="edgeStyle=orthogonalEdgeStyle;rounded=0;orthogonalLoop=1;jettySize=auto;html=1;exitX=0.5;exitY=1;exitDx=0;exitDy=0;entryX=1;entryY=0.5;entryDx=0;entryDy=0;" parent="1" source="swzMXFkPZU0f3SMOaOO9-11" target="swzMXFkPZU0f3SMOaOO9-64" edge="1">
          <mxGeometry relative="1" as="geometry" />
        </mxCell>
        <mxCell id="swzMXFkPZU0f3SMOaOO9-11" value="PINCHES" style="rounded=0;whiteSpace=wrap;html=1;" parent="1" vertex="1">
          <mxGeometry x="330" y="150" width="120" height="60" as="geometry" />
        </mxCell>
        <mxCell id="swzMXFkPZU0f3SMOaOO9-12" value="F. NACIMIENTO" style="ellipse;whiteSpace=wrap;html=1;" parent="1" vertex="1">
          <mxGeometry x="402.5" y="240" width="107.5" height="30" as="geometry" />
        </mxCell>
        <mxCell id="swzMXFkPZU0f3SMOaOO9-13" style="edgeStyle=orthogonalEdgeStyle;rounded=0;orthogonalLoop=1;jettySize=auto;html=1;exitX=0;exitY=0.75;exitDx=0;exitDy=0;entryX=0.44;entryY=-0.025;entryDx=0;entryDy=0;entryPerimeter=0;" parent="1" source="swzMXFkPZU0f3SMOaOO9-5" edge="1">
          <mxGeometry relative="1" as="geometry">
            <mxPoint x="134" y="229.25" as="targetPoint" />
          </mxGeometry>
        </mxCell>
        <mxCell id="swzMXFkPZU0f3SMOaOO9-15" style="edgeStyle=orthogonalEdgeStyle;rounded=0;orthogonalLoop=1;jettySize=auto;html=1;entryX=0.425;entryY=-0.067;entryDx=0;entryDy=0;entryPerimeter=0;" parent="1" target="swzMXFkPZU0f3SMOaOO9-5" edge="1">
          <mxGeometry relative="1" as="geometry">
            <mxPoint x="400" y="120" as="sourcePoint" />
          </mxGeometry>
        </mxCell>
        <mxCell id="swzMXFkPZU0f3SMOaOO9-17" value="OTROS" style="rounded=0;whiteSpace=wrap;html=1;" parent="1" vertex="1">
          <mxGeometry x="480" y="150" width="120" height="60" as="geometry" />
        </mxCell>
        <mxCell id="swzMXFkPZU0f3SMOaOO9-29" style="edgeStyle=orthogonalEdgeStyle;rounded=0;orthogonalLoop=1;jettySize=auto;html=1;exitX=0;exitY=0.5;exitDx=0;exitDy=0;entryX=0;entryY=0.5;entryDx=0;entryDy=0;" parent="1" source="swzMXFkPZU0f3SMOaOO9-21" target="swzMXFkPZU0f3SMOaOO9-24" edge="1">
          <mxGeometry relative="1" as="geometry" />
        </mxCell>
        <mxCell id="swzMXFkPZU0f3SMOaOO9-30" style="edgeStyle=orthogonalEdgeStyle;rounded=0;orthogonalLoop=1;jettySize=auto;html=1;exitX=0;exitY=0.5;exitDx=0;exitDy=0;entryX=0;entryY=0.5;entryDx=0;entryDy=0;" parent="1" source="swzMXFkPZU0f3SMOaOO9-21" target="swzMXFkPZU0f3SMOaOO9-22" edge="1">
          <mxGeometry relative="1" as="geometry" />
        </mxCell>
        <mxCell id="swzMXFkPZU0f3SMOaOO9-45" style="edgeStyle=orthogonalEdgeStyle;rounded=0;orthogonalLoop=1;jettySize=auto;html=1;exitX=1;exitY=0.5;exitDx=0;exitDy=0;entryX=0;entryY=0.5;entryDx=0;entryDy=0;" parent="1" source="swzMXFkPZU0f3SMOaOO9-92" target="swzMXFkPZU0f3SMOaOO9-43" edge="1">
          <mxGeometry relative="1" as="geometry" />
        </mxCell>
        <mxCell id="swzMXFkPZU0f3SMOaOO9-21" value="PLATO" style="rounded=0;whiteSpace=wrap;html=1;" parent="1" vertex="1">
          <mxGeometry x="-95" y="398" width="120" height="60" as="geometry" />
        </mxCell>
        <mxCell id="swzMXFkPZU0f3SMOaOO9-22" value="TIPO DE PLATO" style="ellipse;whiteSpace=wrap;html=1;" parent="1" vertex="1">
          <mxGeometry x="-85" y="625" width="110" height="30" as="geometry" />
        </mxCell>
        <mxCell id="swzMXFkPZU0f3SMOaOO9-24" value="PRECIO" style="ellipse;whiteSpace=wrap;html=1;" parent="1" vertex="1">
          <mxGeometry x="-90" y="480" width="110" height="30" as="geometry" />
        </mxCell>
        <mxCell id="swzMXFkPZU0f3SMOaOO9-31" style="edgeStyle=orthogonalEdgeStyle;rounded=0;orthogonalLoop=1;jettySize=auto;html=1;exitX=0.25;exitY=1;exitDx=0;exitDy=0;" parent="1" source="swzMXFkPZU0f3SMOaOO9-43" edge="1">
          <mxGeometry relative="1" as="geometry">
            <mxPoint x="267.5" y="440" as="sourcePoint" />
            <mxPoint x="325" y="495" as="targetPoint" />
          </mxGeometry>
        </mxCell>
        <mxCell id="swzMXFkPZU0f3SMOaOO9-69" style="edgeStyle=orthogonalEdgeStyle;rounded=0;orthogonalLoop=1;jettySize=auto;html=1;exitX=0;exitY=0;exitDx=0;exitDy=0;entryX=0;entryY=0.5;entryDx=0;entryDy=0;" parent="1" source="swzMXFkPZU0f3SMOaOO9-33" target="swzMXFkPZU0f3SMOaOO9-49" edge="1">
          <mxGeometry relative="1" as="geometry" />
        </mxCell>
        <mxCell id="swzMXFkPZU0f3SMOaOO9-70" style="edgeStyle=orthogonalEdgeStyle;rounded=0;orthogonalLoop=1;jettySize=auto;html=1;exitX=0;exitY=0;exitDx=0;exitDy=0;entryX=0;entryY=0.5;entryDx=0;entryDy=0;" parent="1" source="swzMXFkPZU0f3SMOaOO9-33" target="swzMXFkPZU0f3SMOaOO9-50" edge="1">
          <mxGeometry relative="1" as="geometry">
            <Array as="points">
              <mxPoint x="510" y="380" />
              <mxPoint x="480" y="380" />
              <mxPoint x="480" y="353" />
            </Array>
          </mxGeometry>
        </mxCell>
        <mxCell id="swzMXFkPZU0f3SMOaOO9-75" style="edgeStyle=orthogonalEdgeStyle;rounded=0;orthogonalLoop=1;jettySize=auto;html=1;exitX=0.5;exitY=1;exitDx=0;exitDy=0;entryX=1;entryY=0.5;entryDx=0;entryDy=0;" parent="1" source="swzMXFkPZU0f3SMOaOO9-33" target="swzMXFkPZU0f3SMOaOO9-73" edge="1">
          <mxGeometry relative="1" as="geometry" />
        </mxCell>
        <mxCell id="swzMXFkPZU0f3SMOaOO9-101" style="edgeStyle=orthogonalEdgeStyle;rounded=0;orthogonalLoop=1;jettySize=auto;html=1;exitX=1;exitY=0.25;exitDx=0;exitDy=0;entryX=0;entryY=0.5;entryDx=0;entryDy=0;" parent="1" source="swzMXFkPZU0f3SMOaOO9-33" target="swzMXFkPZU0f3SMOaOO9-99" edge="1">
          <mxGeometry relative="1" as="geometry" />
        </mxCell>
        <mxCell id="swzMXFkPZU0f3SMOaOO9-33" value="ESTANTE" style="shape=ext;margin=3;double=1;whiteSpace=wrap;html=1;align=center;" parent="1" vertex="1">
          <mxGeometry x="510" y="428" width="110" height="50" as="geometry" />
        </mxCell>
        <mxCell id="swzMXFkPZU0f3SMOaOO9-82" style="edgeStyle=orthogonalEdgeStyle;rounded=0;orthogonalLoop=1;jettySize=auto;html=1;exitX=0;exitY=0.5;exitDx=0;exitDy=0;entryX=0;entryY=0.75;entryDx=0;entryDy=0;" parent="1" source="swzMXFkPZU0f3SMOaOO9-36" target="swzMXFkPZU0f3SMOaOO9-44" edge="1">
          <mxGeometry relative="1" as="geometry" />
        </mxCell>
        <mxCell id="swzMXFkPZU0f3SMOaOO9-36" value="&lt;u&gt;NÂº ALMACEN&lt;/u&gt;" style="ellipse;whiteSpace=wrap;html=1;" parent="1" vertex="1">
          <mxGeometry x="680" y="490" width="110" height="30" as="geometry" />
        </mxCell>
        <mxCell id="swzMXFkPZU0f3SMOaOO9-81" style="edgeStyle=orthogonalEdgeStyle;rounded=0;orthogonalLoop=1;jettySize=auto;html=1;exitX=0;exitY=0.5;exitDx=0;exitDy=0;entryX=0;entryY=0.75;entryDx=0;entryDy=0;" parent="1" source="swzMXFkPZU0f3SMOaOO9-41" target="swzMXFkPZU0f3SMOaOO9-44" edge="1">
          <mxGeometry relative="1" as="geometry" />
        </mxCell>
        <mxCell id="swzMXFkPZU0f3SMOaOO9-41" value="NOMBRE" style="ellipse;whiteSpace=wrap;html=1;" parent="1" vertex="1">
          <mxGeometry x="680" y="585" width="110" height="30" as="geometry" />
        </mxCell>
        <mxCell id="swzMXFkPZU0f3SMOaOO9-80" style="edgeStyle=orthogonalEdgeStyle;rounded=0;orthogonalLoop=1;jettySize=auto;html=1;exitX=0;exitY=0.5;exitDx=0;exitDy=0;entryX=0;entryY=0.75;entryDx=0;entryDy=0;" parent="1" source="swzMXFkPZU0f3SMOaOO9-42" target="swzMXFkPZU0f3SMOaOO9-44" edge="1">
          <mxGeometry relative="1" as="geometry" />
        </mxCell>
        <mxCell id="swzMXFkPZU0f3SMOaOO9-42" value="DESCRIPCIÃN" style="ellipse;whiteSpace=wrap;html=1;" parent="1" vertex="1">
          <mxGeometry x="680" y="535" width="105" height="30" as="geometry" />
        </mxCell>
        <mxCell id="swzMXFkPZU0f3SMOaOO9-76" style="edgeStyle=orthogonalEdgeStyle;rounded=0;orthogonalLoop=1;jettySize=auto;html=1;exitX=0;exitY=0.75;exitDx=0;exitDy=0;entryX=0;entryY=0.5;entryDx=0;entryDy=0;" parent="1" source="swzMXFkPZU0f3SMOaOO9-43" target="swzMXFkPZU0f3SMOaOO9-73" edge="1">
          <mxGeometry relative="1" as="geometry" />
        </mxCell>
        <mxCell id="swzMXFkPZU0f3SMOaOO9-44" value="ALMACEN" style="rounded=0;whiteSpace=wrap;html=1;" parent="1" vertex="1">
          <mxGeometry x="680" y="410" width="120" height="60" as="geometry" />
        </mxCell>
        <mxCell id="swzMXFkPZU0f3SMOaOO9-48" value="D.Principal&lt;br&gt;C. Frigo A&lt;br&gt;C.Frigo B" style="text;html=1;align=center;verticalAlign=middle;resizable=0;points=[];autosize=1;strokeColor=none;fillColor=none;" parent="1" vertex="1">
          <mxGeometry x="720" y="610" width="80" height="60" as="geometry" />
        </mxCell>
        <mxCell id="swzMXFkPZU0f3SMOaOO9-49" value="TAMAÃO" style="ellipse;whiteSpace=wrap;html=1;" parent="1" vertex="1">
          <mxGeometry x="500" y="300" width="100" height="30" as="geometry" />
        </mxCell>
        <mxCell id="swzMXFkPZU0f3SMOaOO9-50" value="&lt;u&gt;Id. LETRAS&lt;/u&gt;" style="ellipse;whiteSpace=wrap;html=1;" parent="1" vertex="1">
          <mxGeometry x="500" y="340" width="100" height="25" as="geometry" />
        </mxCell>
        <mxCell id="swzMXFkPZU0f3SMOaOO9-59" value="" style="edgeStyle=orthogonalEdgeStyle;rounded=0;orthogonalLoop=1;jettySize=auto;html=1;exitX=0;exitY=0;exitDx=0;exitDy=0;entryX=0.5;entryY=0;entryDx=0;entryDy=0;" parent="1" source="swzMXFkPZU0f3SMOaOO9-5" target="swzMXFkPZU0f3SMOaOO9-58" edge="1">
          <mxGeometry relative="1" as="geometry">
            <mxPoint x="150" y="150" as="sourcePoint" />
            <mxPoint x="70" y="380" as="targetPoint" />
            <Array as="points">
              <mxPoint x="50" y="150" />
            </Array>
          </mxGeometry>
        </mxCell>
        <mxCell id="swzMXFkPZU0f3SMOaOO9-61" style="edgeStyle=orthogonalEdgeStyle;rounded=0;orthogonalLoop=1;jettySize=auto;html=1;exitX=0.5;exitY=1;exitDx=0;exitDy=0;entryX=0.25;entryY=0;entryDx=0;entryDy=0;" parent="1" source="swzMXFkPZU0f3SMOaOO9-58" target="swzMXFkPZU0f3SMOaOO9-21" edge="1">
          <mxGeometry relative="1" as="geometry" />
        </mxCell>
        <mxCell id="swzMXFkPZU0f3SMOaOO9-58" value="prepara" style="rhombus;whiteSpace=wrap;html=1;" parent="1" vertex="1">
          <mxGeometry y="270" width="100" height="60" as="geometry" />
        </mxCell>
        <mxCell id="swzMXFkPZU0f3SMOaOO9-64" value="a Cargo" style="rhombus;whiteSpace=wrap;html=1;" parent="1" vertex="1">
          <mxGeometry x="260" y="290" width="100" height="50" as="geometry" />
        </mxCell>
        <mxCell id="swzMXFkPZU0f3SMOaOO9-73" value="Tiene" style="rhombus;whiteSpace=wrap;html=1;" parent="1" vertex="1">
          <mxGeometry x="327.5" y="560" width="100" height="50" as="geometry" />
        </mxCell>
        <mxCell id="swzMXFkPZU0f3SMOaOO9-79" style="edgeStyle=orthogonalEdgeStyle;rounded=0;orthogonalLoop=1;jettySize=auto;html=1;exitX=0.5;exitY=1;exitDx=0;exitDy=0;" parent="1" source="swzMXFkPZU0f3SMOaOO9-36" target="swzMXFkPZU0f3SMOaOO9-36" edge="1">
          <mxGeometry relative="1" as="geometry" />
        </mxCell>
        <mxCell id="swzMXFkPZU0f3SMOaOO9-84" value="" style="edgeStyle=orthogonalEdgeStyle;rounded=0;orthogonalLoop=1;jettySize=auto;html=1;exitX=0.5;exitY=1;exitDx=0;exitDy=0;entryX=0.5;entryY=0;entryDx=0;entryDy=0;" parent="1" source="swzMXFkPZU0f3SMOaOO9-1" target="swzMXFkPZU0f3SMOaOO9-19" edge="1">
          <mxGeometry relative="1" as="geometry">
            <mxPoint x="400" as="sourcePoint" />
            <mxPoint x="540" y="150" as="targetPoint" />
            <Array as="points" />
          </mxGeometry>
        </mxCell>
        <mxCell id="swzMXFkPZU0f3SMOaOO9-19" value="IS A" style="triangle;whiteSpace=wrap;html=1;rotation=90;" parent="1" vertex="1">
          <mxGeometry x="370" y="40" width="60" height="80" as="geometry" />
        </mxCell>
        <mxCell id="swzMXFkPZU0f3SMOaOO9-86" value="SS" style="ellipse;whiteSpace=wrap;html=1;" parent="1" vertex="1">
          <mxGeometry x="120" y="260" width="90" height="30" as="geometry" />
        </mxCell>
        <mxCell id="swzMXFkPZU0f3SMOaOO9-87" value="&lt;span style=&quot;border-bottom: 1px dotted&quot;&gt;AÃ±os Servicio&lt;/span&gt;" style="ellipse;whiteSpace=wrap;html=1;align=center;" parent="1" vertex="1">
          <mxGeometry x="120" y="230" width="90" height="30" as="geometry" />
        </mxCell>
        <mxCell id="swzMXFkPZU0f3SMOaOO9-91" value="Entrante&lt;br&gt;Primero&lt;br&gt;&lt;div style=&quot;text-align: left;&quot;&gt;&lt;span style=&quot;background-color: initial;&quot;&gt;Postre&lt;/span&gt;&lt;/div&gt;" style="text;html=1;align=center;verticalAlign=middle;resizable=0;points=[];autosize=1;strokeColor=none;fillColor=none;" parent="1" vertex="1">
          <mxGeometry x="-80" y="655" width="70" height="60" as="geometry" />
        </mxCell>
        <mxCell id="swzMXFkPZU0f3SMOaOO9-94" style="edgeStyle=orthogonalEdgeStyle;rounded=0;orthogonalLoop=1;jettySize=auto;html=1;exitX=0.5;exitY=0;exitDx=0;exitDy=0;entryX=0.5;entryY=1;entryDx=0;entryDy=0;" parent="1" source="swzMXFkPZU0f3SMOaOO9-92" target="swzMXFkPZU0f3SMOaOO9-93" edge="1">
          <mxGeometry relative="1" as="geometry" />
        </mxCell>
        <mxCell id="swzMXFkPZU0f3SMOaOO9-93" value="Cnatidad" style="ellipse;whiteSpace=wrap;html=1;" parent="1" vertex="1">
          <mxGeometry x="140" y="332.5" width="110" height="40" as="geometry" />
        </mxCell>
        <mxCell id="swzMXFkPZU0f3SMOaOO9-96" value="" style="edgeStyle=orthogonalEdgeStyle;rounded=0;orthogonalLoop=1;jettySize=auto;html=1;exitX=1;exitY=0.5;exitDx=0;exitDy=0;entryX=0;entryY=0.5;entryDx=0;entryDy=0;" parent="1" source="swzMXFkPZU0f3SMOaOO9-43" target="swzMXFkPZU0f3SMOaOO9-95" edge="1">
          <mxGeometry relative="1" as="geometry">
            <mxPoint x="370" y="415" as="sourcePoint" />
            <mxPoint x="520" y="415" as="targetPoint" />
          </mxGeometry>
        </mxCell>
        <mxCell id="swzMXFkPZU0f3SMOaOO9-105" style="edgeStyle=orthogonalEdgeStyle;rounded=0;orthogonalLoop=1;jettySize=auto;html=1;exitX=1;exitY=0.5;exitDx=0;exitDy=0;entryX=0;entryY=0.5;entryDx=0;entryDy=0;" parent="1" source="swzMXFkPZU0f3SMOaOO9-95" target="swzMXFkPZU0f3SMOaOO9-33" edge="1">
          <mxGeometry relative="1" as="geometry" />
        </mxCell>
        <mxCell id="swzMXFkPZU0f3SMOaOO9-95" value="EstÃ¡n" style="rhombus;whiteSpace=wrap;html=1;" parent="1" vertex="1">
          <mxGeometry x="405" y="425" width="75" height="45" as="geometry" />
        </mxCell>
        <mxCell id="swzMXFkPZU0f3SMOaOO9-102" style="edgeStyle=orthogonalEdgeStyle;rounded=0;orthogonalLoop=1;jettySize=auto;html=1;exitX=1;exitY=0.5;exitDx=0;exitDy=0;entryX=0.75;entryY=0;entryDx=0;entryDy=0;" parent="1" source="swzMXFkPZU0f3SMOaOO9-99" target="swzMXFkPZU0f3SMOaOO9-44" edge="1">
          <mxGeometry relative="1" as="geometry" />
        </mxCell>
        <mxCell id="swzMXFkPZU0f3SMOaOO9-99" value="Pertenece" style="rhombus;whiteSpace=wrap;html=1;" parent="1" vertex="1">
          <mxGeometry x="670" y="270" width="80" height="50" as="geometry" />
        </mxCell>
        <mxCell id="swzMXFkPZU0f3SMOaOO9-43" value="INGREDIENTES" style="rounded=0;whiteSpace=wrap;html=1;" parent="1" vertex="1">
          <mxGeometry x="260" y="425" width="120" height="60" as="geometry" />
        </mxCell>
        <mxCell id="swzMXFkPZU0f3SMOaOO9-106" value="cantidad total" style="ellipse;whiteSpace=wrap;html=1;align=center;dashed=1;" parent="1" vertex="1">
          <mxGeometry x="305" y="495" width="100" height="40" as="geometry" />
        </mxCell>
        <mxCell id="swzMXFkPZU0f3SMOaOO9-108" value="1:N&lt;br&gt;" style="text;html=1;align=center;verticalAlign=middle;resizable=0;points=[];autosize=1;strokeColor=none;fillColor=none;" parent="1" vertex="1">
          <mxGeometry x="-30" y="288" width="40" height="30" as="geometry" />
        </mxCell>
        <mxCell id="swzMXFkPZU0f3SMOaOO9-109" value="1,n" style="text;html=1;align=center;verticalAlign=middle;resizable=0;points=[];autosize=1;strokeColor=none;fillColor=none;" parent="1" vertex="1">
          <mxGeometry x="-110" y="372.5" width="40" height="30" as="geometry" />
        </mxCell>
        <mxCell id="swzMXFkPZU0f3SMOaOO9-110" value="N:M" style="text;html=1;align=center;verticalAlign=middle;resizable=0;points=[];autosize=1;strokeColor=none;fillColor=none;" parent="1" vertex="1">
          <mxGeometry x="120" y="450" width="50" height="30" as="geometry" />
        </mxCell>
        <mxCell id="swzMXFkPZU0f3SMOaOO9-111" value="1:N" style="text;html=1;align=center;verticalAlign=middle;resizable=0;points=[];autosize=1;strokeColor=none;fillColor=none;" parent="1" vertex="1">
          <mxGeometry x="290" y="268" width="40" height="30" as="geometry" />
        </mxCell>
        <mxCell id="swzMXFkPZU0f3SMOaOO9-112" value="1,n" style="text;html=1;align=center;verticalAlign=middle;resizable=0;points=[];autosize=1;strokeColor=none;fillColor=none;" parent="1" vertex="1">
          <mxGeometry x="350" y="208" width="40" height="30" as="geometry" />
        </mxCell>
        <mxCell id="swzMXFkPZU0f3SMOaOO9-113" value="1;1" style="text;html=1;align=center;verticalAlign=middle;resizable=0;points=[];autosize=1;strokeColor=none;fillColor=none;" parent="1" vertex="1">
          <mxGeometry x="235" y="210" width="40" height="30" as="geometry" />
        </mxCell>
        <mxCell id="swzMXFkPZU0f3SMOaOO9-114" value="1,1" style="text;html=1;align=center;verticalAlign=middle;resizable=0;points=[];autosize=1;strokeColor=none;fillColor=none;" parent="1" vertex="1">
          <mxGeometry x="110" y="148" width="40" height="30" as="geometry" />
        </mxCell>
        <mxCell id="swzMXFkPZU0f3SMOaOO9-115" value="1,n" style="text;html=1;align=center;verticalAlign=middle;resizable=0;points=[];autosize=1;strokeColor=none;fillColor=none;" parent="1" vertex="1">
          <mxGeometry x="390" y="420" width="40" height="30" as="geometry" />
        </mxCell>
        <mxCell id="swzMXFkPZU0f3SMOaOO9-116" value="1,n" style="text;html=1;align=center;verticalAlign=middle;resizable=0;points=[];autosize=1;strokeColor=none;fillColor=none;" parent="1" vertex="1">
          <mxGeometry x="220" y="428" width="40" height="30" as="geometry" />
        </mxCell>
        <mxCell id="swzMXFkPZU0f3SMOaOO9-117" value="N,M" style="text;html=1;align=center;verticalAlign=middle;resizable=0;points=[];autosize=1;strokeColor=none;fillColor=none;" parent="1" vertex="1">
          <mxGeometry x="415" y="398" width="50" height="30" as="geometry" />
        </mxCell>
        <mxCell id="swzMXFkPZU0f3SMOaOO9-118" value="o,n" style="text;html=1;align=center;verticalAlign=middle;resizable=0;points=[];autosize=1;strokeColor=none;fillColor=none;" parent="1" vertex="1">
          <mxGeometry x="470" y="420" width="40" height="30" as="geometry" />
        </mxCell>
        <mxCell id="swzMXFkPZU0f3SMOaOO9-120" value="" style="edgeStyle=orthogonalEdgeStyle;rounded=0;orthogonalLoop=1;jettySize=auto;html=1;exitX=1;exitY=0.5;exitDx=0;exitDy=0;entryX=0;entryY=0.5;entryDx=0;entryDy=0;" parent="1" source="swzMXFkPZU0f3SMOaOO9-21" target="swzMXFkPZU0f3SMOaOO9-92" edge="1">
          <mxGeometry relative="1" as="geometry">
            <mxPoint x="25" y="428" as="sourcePoint" />
            <mxPoint x="275" y="455" as="targetPoint" />
          </mxGeometry>
        </mxCell>
        <mxCell id="swzMXFkPZU0f3SMOaOO9-92" value="necesita" style="rhombus;whiteSpace=wrap;html=1;" parent="1" vertex="1">
          <mxGeometry x="100" y="403" width="90" height="50" as="geometry" />
        </mxCell>
        <mxCell id="swzMXFkPZU0f3SMOaOO9-123" value="1:N" style="text;html=1;align=center;verticalAlign=middle;resizable=0;points=[];autosize=1;strokeColor=none;fillColor=none;" parent="1" vertex="1">
          <mxGeometry x="690" y="238" width="40" height="30" as="geometry" />
        </mxCell>
        <mxCell id="swzMXFkPZU0f3SMOaOO9-124" value="1,n" style="text;html=1;align=center;verticalAlign=middle;resizable=0;points=[];autosize=1;strokeColor=none;fillColor=none;" parent="1" vertex="1">
          <mxGeometry x="610" y="408" width="40" height="30" as="geometry" />
        </mxCell>
        <mxCell id="swzMXFkPZU0f3SMOaOO9-125" value="1,1" style="text;html=1;align=center;verticalAlign=middle;resizable=0;points=[];autosize=1;strokeColor=none;fillColor=none;" parent="1" vertex="1">
          <mxGeometry x="760" y="378" width="40" height="30" as="geometry" />
        </mxCell>
        <mxCell id="swzMXFkPZU0f3SMOaOO9-126" value="1,n" style="text;html=1;align=center;verticalAlign=middle;resizable=0;points=[];autosize=1;strokeColor=none;fillColor=none;" parent="1" vertex="1">
          <mxGeometry x="20" y="398" width="40" height="30" as="geometry" />
        </mxCell>
        <mxCell id="n6WAUjJPKh_chfoIL3Hf-1" value="" style="shape=requiredInterface;html=1;verticalLabelPosition=bottom;sketch=0;direction=south;" parent="1" vertex="1">
          <mxGeometry x="372.5" y="100" width="55" height="15" as="geometry" />
        </mxCell>
        <mxCell id="ohbaOP87XqiYjv760Opy-3" value="PRECIO" style="ellipse;whiteSpace=wrap;html=1;" vertex="1" parent="1">
          <mxGeometry x="-85" y="565" width="100" height="40" as="geometry" />
        </mxCell>
        <mxCell id="ohbaOP87XqiYjv760Opy-4" value="NOMBRE" style="ellipse;whiteSpace=wrap;html=1;" vertex="1" parent="1">
          <mxGeometry x="-85" y="520" width="90" height="40" as="geometry" />
        </mxCell>
        <mxCell id="ohbaOP87XqiYjv760Opy-5" value="INGREDIENTES" style="shape=table;startSize=30;container=1;collapsible=1;childLayout=tableLayout;fixedRows=1;rowLines=0;fontStyle=1;align=center;resizeLast=1;html=1;" vertex="1" parent="1">
          <mxGeometry x="680" y="1169" width="180" height="60" as="geometry" />
        </mxCell>
        <mxCell id="ohbaOP87XqiYjv760Opy-6" value="" style="shape=tableRow;horizontal=0;startSize=0;swimlaneHead=0;swimlaneBody=0;fillColor=none;collapsible=0;dropTarget=0;points=[[0,0.5],[1,0.5]];portConstraint=eastwest;top=0;left=0;right=0;bottom=1;" vertex="1" parent="ohbaOP87XqiYjv760Opy-5">
          <mxGeometry y="30" width="180" height="30" as="geometry" />
        </mxCell>
        <mxCell id="ohbaOP87XqiYjv760Opy-7" value="PK" style="shape=partialRectangle;connectable=0;fillColor=none;top=0;left=0;bottom=0;right=0;fontStyle=1;overflow=hidden;whiteSpace=wrap;html=1;" vertex="1" parent="ohbaOP87XqiYjv760Opy-6">
          <mxGeometry width="30" height="30" as="geometry">
            <mxRectangle width="30" height="30" as="alternateBounds" />
          </mxGeometry>
        </mxCell>
        <mxCell id="ohbaOP87XqiYjv760Opy-8" value="NOMBRE" style="shape=partialRectangle;connectable=0;fillColor=none;top=0;left=0;bottom=0;right=0;align=left;spacingLeft=6;fontStyle=5;overflow=hidden;whiteSpace=wrap;html=1;" vertex="1" parent="ohbaOP87XqiYjv760Opy-6">
          <mxGeometry x="30" width="150" height="30" as="geometry">
            <mxRectangle width="150" height="30" as="alternateBounds" />
          </mxGeometry>
        </mxCell>
        <mxCell id="ohbaOP87XqiYjv760Opy-18" value="PLATOS" style="shape=table;startSize=30;container=1;collapsible=1;childLayout=tableLayout;fixedRows=1;rowLines=0;fontStyle=1;align=center;resizeLast=1;html=1;" vertex="1" parent="1">
          <mxGeometry x="372.5" y="950" width="180" height="150" as="geometry" />
        </mxCell>
        <mxCell id="ohbaOP87XqiYjv760Opy-19" value="" style="shape=tableRow;horizontal=0;startSize=0;swimlaneHead=0;swimlaneBody=0;fillColor=none;collapsible=0;dropTarget=0;points=[[0,0.5],[1,0.5]];portConstraint=eastwest;top=0;left=0;right=0;bottom=1;" vertex="1" parent="ohbaOP87XqiYjv760Opy-18">
          <mxGeometry y="30" width="180" height="30" as="geometry" />
        </mxCell>
        <mxCell id="ohbaOP87XqiYjv760Opy-20" value="PK" style="shape=partialRectangle;connectable=0;fillColor=none;top=0;left=0;bottom=0;right=0;fontStyle=1;overflow=hidden;whiteSpace=wrap;html=1;" vertex="1" parent="ohbaOP87XqiYjv760Opy-19">
          <mxGeometry width="30" height="30" as="geometry">
            <mxRectangle width="30" height="30" as="alternateBounds" />
          </mxGeometry>
        </mxCell>
        <mxCell id="ohbaOP87XqiYjv760Opy-21" value="ID.PLATO" style="shape=partialRectangle;connectable=0;fillColor=none;top=0;left=0;bottom=0;right=0;align=left;spacingLeft=6;fontStyle=5;overflow=hidden;whiteSpace=wrap;html=1;" vertex="1" parent="ohbaOP87XqiYjv760Opy-19">
          <mxGeometry x="30" width="150" height="30" as="geometry">
            <mxRectangle width="150" height="30" as="alternateBounds" />
          </mxGeometry>
        </mxCell>
        <mxCell id="ohbaOP87XqiYjv760Opy-22" value="" style="shape=tableRow;horizontal=0;startSize=0;swimlaneHead=0;swimlaneBody=0;fillColor=none;collapsible=0;dropTarget=0;points=[[0,0.5],[1,0.5]];portConstraint=eastwest;top=0;left=0;right=0;bottom=0;" vertex="1" parent="ohbaOP87XqiYjv760Opy-18">
          <mxGeometry y="60" width="180" height="30" as="geometry" />
        </mxCell>
        <mxCell id="ohbaOP87XqiYjv760Opy-23" value="" style="shape=partialRectangle;connectable=0;fillColor=none;top=0;left=0;bottom=0;right=0;editable=1;overflow=hidden;whiteSpace=wrap;html=1;" vertex="1" parent="ohbaOP87XqiYjv760Opy-22">
          <mxGeometry width="30" height="30" as="geometry">
            <mxRectangle width="30" height="30" as="alternateBounds" />
          </mxGeometry>
        </mxCell>
        <mxCell id="ohbaOP87XqiYjv760Opy-24" value="NOMBRE&lt;span style=&quot;white-space: pre;&quot;&gt;&#x9;&lt;/span&gt;&lt;br&gt;" style="shape=partialRectangle;connectable=0;fillColor=none;top=0;left=0;bottom=0;right=0;align=left;spacingLeft=6;overflow=hidden;whiteSpace=wrap;html=1;" vertex="1" parent="ohbaOP87XqiYjv760Opy-22">
          <mxGeometry x="30" width="150" height="30" as="geometry">
            <mxRectangle width="150" height="30" as="alternateBounds" />
          </mxGeometry>
        </mxCell>
        <mxCell id="ohbaOP87XqiYjv760Opy-25" value="" style="shape=tableRow;horizontal=0;startSize=0;swimlaneHead=0;swimlaneBody=0;fillColor=none;collapsible=0;dropTarget=0;points=[[0,0.5],[1,0.5]];portConstraint=eastwest;top=0;left=0;right=0;bottom=0;" vertex="1" parent="ohbaOP87XqiYjv760Opy-18">
          <mxGeometry y="90" width="180" height="30" as="geometry" />
        </mxCell>
        <mxCell id="ohbaOP87XqiYjv760Opy-26" value="" style="shape=partialRectangle;connectable=0;fillColor=none;top=0;left=0;bottom=0;right=0;editable=1;overflow=hidden;whiteSpace=wrap;html=1;" vertex="1" parent="ohbaOP87XqiYjv760Opy-25">
          <mxGeometry width="30" height="30" as="geometry">
            <mxRectangle width="30" height="30" as="alternateBounds" />
          </mxGeometry>
        </mxCell>
        <mxCell id="ohbaOP87XqiYjv760Opy-27" value="PRECIO" style="shape=partialRectangle;connectable=0;fillColor=none;top=0;left=0;bottom=0;right=0;align=left;spacingLeft=6;overflow=hidden;whiteSpace=wrap;html=1;" vertex="1" parent="ohbaOP87XqiYjv760Opy-25">
          <mxGeometry x="30" width="150" height="30" as="geometry">
            <mxRectangle width="150" height="30" as="alternateBounds" />
          </mxGeometry>
        </mxCell>
        <mxCell id="ohbaOP87XqiYjv760Opy-28" value="" style="shape=tableRow;horizontal=0;startSize=0;swimlaneHead=0;swimlaneBody=0;fillColor=none;collapsible=0;dropTarget=0;points=[[0,0.5],[1,0.5]];portConstraint=eastwest;top=0;left=0;right=0;bottom=0;" vertex="1" parent="ohbaOP87XqiYjv760Opy-18">
          <mxGeometry y="120" width="180" height="30" as="geometry" />
        </mxCell>
        <mxCell id="ohbaOP87XqiYjv760Opy-29" value="" style="shape=partialRectangle;connectable=0;fillColor=none;top=0;left=0;bottom=0;right=0;editable=1;overflow=hidden;whiteSpace=wrap;html=1;" vertex="1" parent="ohbaOP87XqiYjv760Opy-28">
          <mxGeometry width="30" height="30" as="geometry">
            <mxRectangle width="30" height="30" as="alternateBounds" />
          </mxGeometry>
        </mxCell>
        <mxCell id="ohbaOP87XqiYjv760Opy-30" value="TIPO" style="shape=partialRectangle;connectable=0;fillColor=none;top=0;left=0;bottom=0;right=0;align=left;spacingLeft=6;overflow=hidden;whiteSpace=wrap;html=1;" vertex="1" parent="ohbaOP87XqiYjv760Opy-28">
          <mxGeometry x="30" width="150" height="30" as="geometry">
            <mxRectangle width="150" height="30" as="alternateBounds" />
          </mxGeometry>
        </mxCell>
        <mxCell id="ohbaOP87XqiYjv760Opy-31" value="COCINEROS" style="shape=table;startSize=30;container=1;collapsible=1;childLayout=tableLayout;fixedRows=1;rowLines=0;fontStyle=1;align=center;resizeLast=1;html=1;" vertex="1" parent="1">
          <mxGeometry x="-10" y="965" width="180" height="120" as="geometry" />
        </mxCell>
        <mxCell id="ohbaOP87XqiYjv760Opy-32" value="" style="shape=tableRow;horizontal=0;startSize=0;swimlaneHead=0;swimlaneBody=0;fillColor=none;collapsible=0;dropTarget=0;points=[[0,0.5],[1,0.5]];portConstraint=eastwest;top=0;left=0;right=0;bottom=1;" vertex="1" parent="ohbaOP87XqiYjv760Opy-31">
          <mxGeometry y="30" width="180" height="30" as="geometry" />
        </mxCell>
        <mxCell id="ohbaOP87XqiYjv760Opy-33" value="PK" style="shape=partialRectangle;connectable=0;fillColor=none;top=0;left=0;bottom=0;right=0;fontStyle=1;overflow=hidden;whiteSpace=wrap;html=1;" vertex="1" parent="ohbaOP87XqiYjv760Opy-32">
          <mxGeometry width="30" height="30" as="geometry">
            <mxRectangle width="30" height="30" as="alternateBounds" />
          </mxGeometry>
        </mxCell>
        <mxCell id="ohbaOP87XqiYjv760Opy-34" value="DNI" style="shape=partialRectangle;connectable=0;fillColor=none;top=0;left=0;bottom=0;right=0;align=left;spacingLeft=6;fontStyle=5;overflow=hidden;whiteSpace=wrap;html=1;" vertex="1" parent="ohbaOP87XqiYjv760Opy-32">
          <mxGeometry x="30" width="150" height="30" as="geometry">
            <mxRectangle width="150" height="30" as="alternateBounds" />
          </mxGeometry>
        </mxCell>
        <mxCell id="ohbaOP87XqiYjv760Opy-35" value="" style="shape=tableRow;horizontal=0;startSize=0;swimlaneHead=0;swimlaneBody=0;fillColor=none;collapsible=0;dropTarget=0;points=[[0,0.5],[1,0.5]];portConstraint=eastwest;top=0;left=0;right=0;bottom=0;" vertex="1" parent="ohbaOP87XqiYjv760Opy-31">
          <mxGeometry y="60" width="180" height="30" as="geometry" />
        </mxCell>
        <mxCell id="ohbaOP87XqiYjv760Opy-36" value="" style="shape=partialRectangle;connectable=0;fillColor=none;top=0;left=0;bottom=0;right=0;editable=1;overflow=hidden;whiteSpace=wrap;html=1;" vertex="1" parent="ohbaOP87XqiYjv760Opy-35">
          <mxGeometry width="30" height="30" as="geometry">
            <mxRectangle width="30" height="30" as="alternateBounds" />
          </mxGeometry>
        </mxCell>
        <mxCell id="ohbaOP87XqiYjv760Opy-37" value="SS" style="shape=partialRectangle;connectable=0;fillColor=none;top=0;left=0;bottom=0;right=0;align=left;spacingLeft=6;overflow=hidden;whiteSpace=wrap;html=1;" vertex="1" parent="ohbaOP87XqiYjv760Opy-35">
          <mxGeometry x="30" width="150" height="30" as="geometry">
            <mxRectangle width="150" height="30" as="alternateBounds" />
          </mxGeometry>
        </mxCell>
        <mxCell id="ohbaOP87XqiYjv760Opy-38" value="" style="shape=tableRow;horizontal=0;startSize=0;swimlaneHead=0;swimlaneBody=0;fillColor=none;collapsible=0;dropTarget=0;points=[[0,0.5],[1,0.5]];portConstraint=eastwest;top=0;left=0;right=0;bottom=0;" vertex="1" parent="ohbaOP87XqiYjv760Opy-31">
          <mxGeometry y="90" width="180" height="30" as="geometry" />
        </mxCell>
        <mxCell id="ohbaOP87XqiYjv760Opy-39" value="" style="shape=partialRectangle;connectable=0;fillColor=none;top=0;left=0;bottom=0;right=0;editable=1;overflow=hidden;whiteSpace=wrap;html=1;" vertex="1" parent="ohbaOP87XqiYjv760Opy-38">
          <mxGeometry width="30" height="30" as="geometry">
            <mxRectangle width="30" height="30" as="alternateBounds" />
          </mxGeometry>
        </mxCell>
        <mxCell id="ohbaOP87XqiYjv760Opy-40" value="AÃOS SERVICIO" style="shape=partialRectangle;connectable=0;fillColor=none;top=0;left=0;bottom=0;right=0;align=left;spacingLeft=6;overflow=hidden;whiteSpace=wrap;html=1;" vertex="1" parent="ohbaOP87XqiYjv760Opy-38">
          <mxGeometry x="30" width="150" height="30" as="geometry">
            <mxRectangle width="150" height="30" as="alternateBounds" />
          </mxGeometry>
        </mxCell>
        <mxCell id="ohbaOP87XqiYjv760Opy-44" value="PINCHES" style="shape=table;startSize=30;container=1;collapsible=1;childLayout=tableLayout;fixedRows=1;rowLines=0;fontStyle=1;align=center;resizeLast=1;html=1;" vertex="1" parent="1">
          <mxGeometry x="680" y="760" width="180" height="150" as="geometry" />
        </mxCell>
        <mxCell id="ohbaOP87XqiYjv760Opy-45" value="" style="shape=tableRow;horizontal=0;startSize=0;swimlaneHead=0;swimlaneBody=0;fillColor=none;collapsible=0;dropTarget=0;points=[[0,0.5],[1,0.5]];portConstraint=eastwest;top=0;left=0;right=0;bottom=1;" vertex="1" parent="ohbaOP87XqiYjv760Opy-44">
          <mxGeometry y="30" width="180" height="30" as="geometry" />
        </mxCell>
        <mxCell id="ohbaOP87XqiYjv760Opy-46" value="PK" style="shape=partialRectangle;connectable=0;fillColor=none;top=0;left=0;bottom=0;right=0;fontStyle=1;overflow=hidden;whiteSpace=wrap;html=1;" vertex="1" parent="ohbaOP87XqiYjv760Opy-45">
          <mxGeometry width="55" height="30" as="geometry">
            <mxRectangle width="55" height="30" as="alternateBounds" />
          </mxGeometry>
        </mxCell>
        <mxCell id="ohbaOP87XqiYjv760Opy-47" value="DNI" style="shape=partialRectangle;connectable=0;fillColor=none;top=0;left=0;bottom=0;right=0;align=left;spacingLeft=6;fontStyle=5;overflow=hidden;whiteSpace=wrap;html=1;" vertex="1" parent="ohbaOP87XqiYjv760Opy-45">
          <mxGeometry x="55" width="125" height="30" as="geometry">
            <mxRectangle width="125" height="30" as="alternateBounds" />
          </mxGeometry>
        </mxCell>
        <mxCell id="ohbaOP87XqiYjv760Opy-48" value="" style="shape=tableRow;horizontal=0;startSize=0;swimlaneHead=0;swimlaneBody=0;fillColor=none;collapsible=0;dropTarget=0;points=[[0,0.5],[1,0.5]];portConstraint=eastwest;top=0;left=0;right=0;bottom=0;" vertex="1" parent="ohbaOP87XqiYjv760Opy-44">
          <mxGeometry y="60" width="180" height="30" as="geometry" />
        </mxCell>
        <mxCell id="ohbaOP87XqiYjv760Opy-49" value="" style="shape=partialRectangle;connectable=0;fillColor=none;top=0;left=0;bottom=0;right=0;editable=1;overflow=hidden;whiteSpace=wrap;html=1;" vertex="1" parent="ohbaOP87XqiYjv760Opy-48">
          <mxGeometry width="55" height="30" as="geometry">
            <mxRectangle width="55" height="30" as="alternateBounds" />
          </mxGeometry>
        </mxCell>
        <mxCell id="ohbaOP87XqiYjv760Opy-50" value="FEC. NACIMIENTO" style="shape=partialRectangle;connectable=0;fillColor=none;top=0;left=0;bottom=0;right=0;align=left;spacingLeft=6;overflow=hidden;whiteSpace=wrap;html=1;" vertex="1" parent="ohbaOP87XqiYjv760Opy-48">
          <mxGeometry x="55" width="125" height="30" as="geometry">
            <mxRectangle width="125" height="30" as="alternateBounds" />
          </mxGeometry>
        </mxCell>
        <mxCell id="ohbaOP87XqiYjv760Opy-129" value="" style="shape=tableRow;horizontal=0;startSize=0;swimlaneHead=0;swimlaneBody=0;fillColor=none;collapsible=0;dropTarget=0;points=[[0,0.5],[1,0.5]];portConstraint=eastwest;top=0;left=0;right=0;bottom=0;" vertex="1" parent="ohbaOP87XqiYjv760Opy-44">
          <mxGeometry y="90" width="180" height="30" as="geometry" />
        </mxCell>
        <mxCell id="ohbaOP87XqiYjv760Opy-130" value="FK" style="shape=partialRectangle;connectable=0;fillColor=none;top=0;left=0;bottom=0;right=0;fontStyle=0;overflow=hidden;whiteSpace=wrap;html=1;" vertex="1" parent="ohbaOP87XqiYjv760Opy-129">
          <mxGeometry width="55" height="30" as="geometry">
            <mxRectangle width="55" height="30" as="alternateBounds" />
          </mxGeometry>
        </mxCell>
        <mxCell id="ohbaOP87XqiYjv760Opy-131" value="DNI COCINERO" style="shape=partialRectangle;connectable=0;fillColor=none;top=0;left=0;bottom=0;right=0;align=left;spacingLeft=6;fontStyle=0;overflow=hidden;whiteSpace=wrap;html=1;" vertex="1" parent="ohbaOP87XqiYjv760Opy-129">
          <mxGeometry x="55" width="125" height="30" as="geometry">
            <mxRectangle width="125" height="30" as="alternateBounds" />
          </mxGeometry>
        </mxCell>
        <mxCell id="ohbaOP87XqiYjv760Opy-51" value="" style="shape=tableRow;horizontal=0;startSize=0;swimlaneHead=0;swimlaneBody=0;fillColor=none;collapsible=0;dropTarget=0;points=[[0,0.5],[1,0.5]];portConstraint=eastwest;top=0;left=0;right=0;bottom=0;" vertex="1" parent="ohbaOP87XqiYjv760Opy-44">
          <mxGeometry y="120" width="180" height="30" as="geometry" />
        </mxCell>
        <mxCell id="ohbaOP87XqiYjv760Opy-52" value="" style="shape=partialRectangle;connectable=0;fillColor=none;top=0;left=0;bottom=0;right=0;editable=1;overflow=hidden;whiteSpace=wrap;html=1;" vertex="1" parent="ohbaOP87XqiYjv760Opy-51">
          <mxGeometry width="55" height="30" as="geometry">
            <mxRectangle width="55" height="30" as="alternateBounds" />
          </mxGeometry>
        </mxCell>
        <mxCell id="ohbaOP87XqiYjv760Opy-53" value="" style="shape=partialRectangle;connectable=0;fillColor=none;top=0;left=0;bottom=0;right=0;align=left;spacingLeft=6;overflow=hidden;whiteSpace=wrap;html=1;" vertex="1" parent="ohbaOP87XqiYjv760Opy-51">
          <mxGeometry x="55" width="125" height="30" as="geometry">
            <mxRectangle width="125" height="30" as="alternateBounds" />
          </mxGeometry>
        </mxCell>
        <mxCell id="ohbaOP87XqiYjv760Opy-57" value="EMPLEADOS" style="shape=table;startSize=30;container=1;collapsible=1;childLayout=tableLayout;fixedRows=1;rowLines=0;fontStyle=1;align=center;resizeLast=1;html=1;" vertex="1" parent="1">
          <mxGeometry x="352.5" y="760" width="180" height="120" as="geometry" />
        </mxCell>
        <mxCell id="ohbaOP87XqiYjv760Opy-58" value="" style="shape=tableRow;horizontal=0;startSize=0;swimlaneHead=0;swimlaneBody=0;fillColor=none;collapsible=0;dropTarget=0;points=[[0,0.5],[1,0.5]];portConstraint=eastwest;top=0;left=0;right=0;bottom=1;" vertex="1" parent="ohbaOP87XqiYjv760Opy-57">
          <mxGeometry y="30" width="180" height="30" as="geometry" />
        </mxCell>
        <mxCell id="ohbaOP87XqiYjv760Opy-59" value="PK" style="shape=partialRectangle;connectable=0;fillColor=none;top=0;left=0;bottom=0;right=0;fontStyle=1;overflow=hidden;whiteSpace=wrap;html=1;" vertex="1" parent="ohbaOP87XqiYjv760Opy-58">
          <mxGeometry width="30" height="30" as="geometry">
            <mxRectangle width="30" height="30" as="alternateBounds" />
          </mxGeometry>
        </mxCell>
        <mxCell id="ohbaOP87XqiYjv760Opy-60" value="DNI" style="shape=partialRectangle;connectable=0;fillColor=none;top=0;left=0;bottom=0;right=0;align=left;spacingLeft=6;fontStyle=5;overflow=hidden;whiteSpace=wrap;html=1;" vertex="1" parent="ohbaOP87XqiYjv760Opy-58">
          <mxGeometry x="30" width="150" height="30" as="geometry">
            <mxRectangle width="150" height="30" as="alternateBounds" />
          </mxGeometry>
        </mxCell>
        <mxCell id="ohbaOP87XqiYjv760Opy-61" value="" style="shape=tableRow;horizontal=0;startSize=0;swimlaneHead=0;swimlaneBody=0;fillColor=none;collapsible=0;dropTarget=0;points=[[0,0.5],[1,0.5]];portConstraint=eastwest;top=0;left=0;right=0;bottom=0;" vertex="1" parent="ohbaOP87XqiYjv760Opy-57">
          <mxGeometry y="60" width="180" height="30" as="geometry" />
        </mxCell>
        <mxCell id="ohbaOP87XqiYjv760Opy-62" value="" style="shape=partialRectangle;connectable=0;fillColor=none;top=0;left=0;bottom=0;right=0;editable=1;overflow=hidden;whiteSpace=wrap;html=1;" vertex="1" parent="ohbaOP87XqiYjv760Opy-61">
          <mxGeometry width="30" height="30" as="geometry">
            <mxRectangle width="30" height="30" as="alternateBounds" />
          </mxGeometry>
        </mxCell>
        <mxCell id="ohbaOP87XqiYjv760Opy-63" value="NOMBRE" style="shape=partialRectangle;connectable=0;fillColor=none;top=0;left=0;bottom=0;right=0;align=left;spacingLeft=6;overflow=hidden;whiteSpace=wrap;html=1;" vertex="1" parent="ohbaOP87XqiYjv760Opy-61">
          <mxGeometry x="30" width="150" height="30" as="geometry">
            <mxRectangle width="150" height="30" as="alternateBounds" />
          </mxGeometry>
        </mxCell>
        <mxCell id="ohbaOP87XqiYjv760Opy-64" value="" style="shape=tableRow;horizontal=0;startSize=0;swimlaneHead=0;swimlaneBody=0;fillColor=none;collapsible=0;dropTarget=0;points=[[0,0.5],[1,0.5]];portConstraint=eastwest;top=0;left=0;right=0;bottom=0;" vertex="1" parent="ohbaOP87XqiYjv760Opy-57">
          <mxGeometry y="90" width="180" height="30" as="geometry" />
        </mxCell>
        <mxCell id="ohbaOP87XqiYjv760Opy-65" value="" style="shape=partialRectangle;connectable=0;fillColor=none;top=0;left=0;bottom=0;right=0;editable=1;overflow=hidden;whiteSpace=wrap;html=1;" vertex="1" parent="ohbaOP87XqiYjv760Opy-64">
          <mxGeometry width="30" height="30" as="geometry">
            <mxRectangle width="30" height="30" as="alternateBounds" />
          </mxGeometry>
        </mxCell>
        <mxCell id="ohbaOP87XqiYjv760Opy-66" value="APELLIDO" style="shape=partialRectangle;connectable=0;fillColor=none;top=0;left=0;bottom=0;right=0;align=left;spacingLeft=6;overflow=hidden;whiteSpace=wrap;html=1;" vertex="1" parent="ohbaOP87XqiYjv760Opy-64">
          <mxGeometry x="30" width="150" height="30" as="geometry">
            <mxRectangle width="150" height="30" as="alternateBounds" />
          </mxGeometry>
        </mxCell>
        <mxCell id="ohbaOP87XqiYjv760Opy-70" value="TELEFONOS" style="shape=table;startSize=30;container=1;collapsible=1;childLayout=tableLayout;fixedRows=1;rowLines=0;fontStyle=1;align=center;resizeLast=1;html=1;" vertex="1" parent="1">
          <mxGeometry x="-10" y="760" width="180" height="100" as="geometry" />
        </mxCell>
        <mxCell id="ohbaOP87XqiYjv760Opy-71" value="" style="shape=tableRow;horizontal=0;startSize=0;swimlaneHead=0;swimlaneBody=0;fillColor=none;collapsible=0;dropTarget=0;points=[[0,0.5],[1,0.5]];portConstraint=eastwest;top=0;left=0;right=0;bottom=1;" vertex="1" parent="ohbaOP87XqiYjv760Opy-70">
          <mxGeometry y="30" width="180" height="40" as="geometry" />
        </mxCell>
        <mxCell id="ohbaOP87XqiYjv760Opy-72" value="PK FK" style="shape=partialRectangle;connectable=0;fillColor=none;top=0;left=0;bottom=0;right=0;fontStyle=1;overflow=hidden;whiteSpace=wrap;html=1;" vertex="1" parent="ohbaOP87XqiYjv760Opy-71">
          <mxGeometry width="60" height="40" as="geometry">
            <mxRectangle width="60" height="40" as="alternateBounds" />
          </mxGeometry>
        </mxCell>
        <mxCell id="ohbaOP87XqiYjv760Opy-73" value="DNI" style="shape=partialRectangle;connectable=0;fillColor=none;top=0;left=0;bottom=0;right=0;align=left;spacingLeft=6;fontStyle=5;overflow=hidden;whiteSpace=wrap;html=1;" vertex="1" parent="ohbaOP87XqiYjv760Opy-71">
          <mxGeometry x="60" width="120" height="40" as="geometry">
            <mxRectangle width="120" height="40" as="alternateBounds" />
          </mxGeometry>
        </mxCell>
        <mxCell id="ohbaOP87XqiYjv760Opy-86" value="" style="shape=tableRow;horizontal=0;startSize=0;swimlaneHead=0;swimlaneBody=0;fillColor=none;collapsible=0;dropTarget=0;points=[[0,0.5],[1,0.5]];portConstraint=eastwest;top=0;left=0;right=0;bottom=1;" vertex="1" parent="ohbaOP87XqiYjv760Opy-70">
          <mxGeometry y="70" width="180" height="30" as="geometry" />
        </mxCell>
        <mxCell id="ohbaOP87XqiYjv760Opy-87" value="PK" style="shape=partialRectangle;connectable=0;fillColor=none;top=0;left=0;bottom=0;right=0;fontStyle=1;overflow=hidden;whiteSpace=wrap;html=1;" vertex="1" parent="ohbaOP87XqiYjv760Opy-86">
          <mxGeometry width="60" height="30" as="geometry">
            <mxRectangle width="60" height="30" as="alternateBounds" />
          </mxGeometry>
        </mxCell>
        <mxCell id="ohbaOP87XqiYjv760Opy-88" value="TELEFONO" style="shape=partialRectangle;connectable=0;fillColor=none;top=0;left=0;bottom=0;right=0;align=left;spacingLeft=6;fontStyle=5;overflow=hidden;whiteSpace=wrap;html=1;" vertex="1" parent="ohbaOP87XqiYjv760Opy-86">
          <mxGeometry x="60" width="120" height="30" as="geometry">
            <mxRectangle width="120" height="30" as="alternateBounds" />
          </mxGeometry>
        </mxCell>
        <mxCell id="ohbaOP87XqiYjv760Opy-83" value="NOMBRE" style="ellipse;whiteSpace=wrap;html=1;" vertex="1" parent="1">
          <mxGeometry x="140" y="70" width="110" height="35" as="geometry" />
        </mxCell>
        <mxCell id="ohbaOP87XqiYjv760Opy-84" value="TELEFONO" style="ellipse;shape=doubleEllipse;margin=3;whiteSpace=wrap;html=1;align=center;" vertex="1" parent="1">
          <mxGeometry x="140" y="-60" width="100" height="40" as="geometry" />
        </mxCell>
        <mxCell id="ohbaOP87XqiYjv760Opy-89" value="ALMACENES" style="shape=table;startSize=30;container=1;collapsible=1;childLayout=tableLayout;fixedRows=1;rowLines=0;fontStyle=1;align=center;resizeLast=1;html=1;" vertex="1" parent="1">
          <mxGeometry x="-10" y="1380" width="180" height="120" as="geometry" />
        </mxCell>
        <mxCell id="ohbaOP87XqiYjv760Opy-90" value="" style="shape=tableRow;horizontal=0;startSize=0;swimlaneHead=0;swimlaneBody=0;fillColor=none;collapsible=0;dropTarget=0;points=[[0,0.5],[1,0.5]];portConstraint=eastwest;top=0;left=0;right=0;bottom=1;" vertex="1" parent="ohbaOP87XqiYjv760Opy-89">
          <mxGeometry y="30" width="180" height="30" as="geometry" />
        </mxCell>
        <mxCell id="ohbaOP87XqiYjv760Opy-91" value="PK" style="shape=partialRectangle;connectable=0;fillColor=none;top=0;left=0;bottom=0;right=0;fontStyle=1;overflow=hidden;whiteSpace=wrap;html=1;" vertex="1" parent="ohbaOP87XqiYjv760Opy-90">
          <mxGeometry width="30" height="30" as="geometry">
            <mxRectangle width="30" height="30" as="alternateBounds" />
          </mxGeometry>
        </mxCell>
        <mxCell id="ohbaOP87XqiYjv760Opy-92" value="NOMBRE" style="shape=partialRectangle;connectable=0;fillColor=none;top=0;left=0;bottom=0;right=0;align=left;spacingLeft=6;fontStyle=5;overflow=hidden;whiteSpace=wrap;html=1;" vertex="1" parent="ohbaOP87XqiYjv760Opy-90">
          <mxGeometry x="30" width="150" height="30" as="geometry">
            <mxRectangle width="150" height="30" as="alternateBounds" />
          </mxGeometry>
        </mxCell>
        <mxCell id="ohbaOP87XqiYjv760Opy-93" value="" style="shape=tableRow;horizontal=0;startSize=0;swimlaneHead=0;swimlaneBody=0;fillColor=none;collapsible=0;dropTarget=0;points=[[0,0.5],[1,0.5]];portConstraint=eastwest;top=0;left=0;right=0;bottom=0;" vertex="1" parent="ohbaOP87XqiYjv760Opy-89">
          <mxGeometry y="60" width="180" height="30" as="geometry" />
        </mxCell>
        <mxCell id="ohbaOP87XqiYjv760Opy-94" value="" style="shape=partialRectangle;connectable=0;fillColor=none;top=0;left=0;bottom=0;right=0;editable=1;overflow=hidden;whiteSpace=wrap;html=1;" vertex="1" parent="ohbaOP87XqiYjv760Opy-93">
          <mxGeometry width="30" height="30" as="geometry">
            <mxRectangle width="30" height="30" as="alternateBounds" />
          </mxGeometry>
        </mxCell>
        <mxCell id="ohbaOP87XqiYjv760Opy-95" value="NUMERO" style="shape=partialRectangle;connectable=0;fillColor=none;top=0;left=0;bottom=0;right=0;align=left;spacingLeft=6;overflow=hidden;whiteSpace=wrap;html=1;" vertex="1" parent="ohbaOP87XqiYjv760Opy-93">
          <mxGeometry x="30" width="150" height="30" as="geometry">
            <mxRectangle width="150" height="30" as="alternateBounds" />
          </mxGeometry>
        </mxCell>
        <mxCell id="ohbaOP87XqiYjv760Opy-96" value="" style="shape=tableRow;horizontal=0;startSize=0;swimlaneHead=0;swimlaneBody=0;fillColor=none;collapsible=0;dropTarget=0;points=[[0,0.5],[1,0.5]];portConstraint=eastwest;top=0;left=0;right=0;bottom=0;" vertex="1" parent="ohbaOP87XqiYjv760Opy-89">
          <mxGeometry y="90" width="180" height="30" as="geometry" />
        </mxCell>
        <mxCell id="ohbaOP87XqiYjv760Opy-97" value="" style="shape=partialRectangle;connectable=0;fillColor=none;top=0;left=0;bottom=0;right=0;editable=1;overflow=hidden;whiteSpace=wrap;html=1;" vertex="1" parent="ohbaOP87XqiYjv760Opy-96">
          <mxGeometry width="30" height="30" as="geometry">
            <mxRectangle width="30" height="30" as="alternateBounds" />
          </mxGeometry>
        </mxCell>
        <mxCell id="ohbaOP87XqiYjv760Opy-98" value="DESCRIPCION" style="shape=partialRectangle;connectable=0;fillColor=none;top=0;left=0;bottom=0;right=0;align=left;spacingLeft=6;overflow=hidden;whiteSpace=wrap;html=1;" vertex="1" parent="ohbaOP87XqiYjv760Opy-96">
          <mxGeometry x="30" width="150" height="30" as="geometry">
            <mxRectangle width="150" height="30" as="alternateBounds" />
          </mxGeometry>
        </mxCell>
        <mxCell id="ohbaOP87XqiYjv760Opy-102" value="ESTANTES" style="shape=table;startSize=30;container=1;collapsible=1;childLayout=tableLayout;fixedRows=1;rowLines=0;fontStyle=1;align=center;resizeLast=1;html=1;" vertex="1" parent="1">
          <mxGeometry x="380" y="1380" width="180" height="120" as="geometry" />
        </mxCell>
        <mxCell id="ohbaOP87XqiYjv760Opy-103" value="" style="shape=tableRow;horizontal=0;startSize=0;swimlaneHead=0;swimlaneBody=0;fillColor=none;collapsible=0;dropTarget=0;points=[[0,0.5],[1,0.5]];portConstraint=eastwest;top=0;left=0;right=0;bottom=1;" vertex="1" parent="ohbaOP87XqiYjv760Opy-102">
          <mxGeometry y="30" width="180" height="30" as="geometry" />
        </mxCell>
        <mxCell id="ohbaOP87XqiYjv760Opy-104" value="PK" style="shape=partialRectangle;connectable=0;fillColor=none;top=0;left=0;bottom=0;right=0;fontStyle=1;overflow=hidden;whiteSpace=wrap;html=1;" vertex="1" parent="ohbaOP87XqiYjv760Opy-103">
          <mxGeometry width="50" height="30" as="geometry">
            <mxRectangle width="50" height="30" as="alternateBounds" />
          </mxGeometry>
        </mxCell>
        <mxCell id="ohbaOP87XqiYjv760Opy-105" value="LETRAS" style="shape=partialRectangle;connectable=0;fillColor=none;top=0;left=0;bottom=0;right=0;align=left;spacingLeft=6;fontStyle=5;overflow=hidden;whiteSpace=wrap;html=1;" vertex="1" parent="ohbaOP87XqiYjv760Opy-103">
          <mxGeometry x="50" width="130" height="30" as="geometry">
            <mxRectangle width="130" height="30" as="alternateBounds" />
          </mxGeometry>
        </mxCell>
        <mxCell id="ohbaOP87XqiYjv760Opy-106" value="" style="shape=tableRow;horizontal=0;startSize=0;swimlaneHead=0;swimlaneBody=0;fillColor=none;collapsible=0;dropTarget=0;points=[[0,0.5],[1,0.5]];portConstraint=eastwest;top=0;left=0;right=0;bottom=0;" vertex="1" parent="ohbaOP87XqiYjv760Opy-102">
          <mxGeometry y="60" width="180" height="30" as="geometry" />
        </mxCell>
        <mxCell id="ohbaOP87XqiYjv760Opy-107" value="PK FK" style="shape=partialRectangle;connectable=0;fillColor=none;top=0;left=0;bottom=0;right=0;editable=1;overflow=hidden;whiteSpace=wrap;html=1;" vertex="1" parent="ohbaOP87XqiYjv760Opy-106">
          <mxGeometry width="50" height="30" as="geometry">
            <mxRectangle width="50" height="30" as="alternateBounds" />
          </mxGeometry>
        </mxCell>
        <mxCell id="ohbaOP87XqiYjv760Opy-108" value="NOM. aLMACEN" style="shape=partialRectangle;connectable=0;fillColor=none;top=0;left=0;bottom=0;right=0;align=left;spacingLeft=6;overflow=hidden;whiteSpace=wrap;html=1;" vertex="1" parent="ohbaOP87XqiYjv760Opy-106">
          <mxGeometry x="50" width="130" height="30" as="geometry">
            <mxRectangle width="130" height="30" as="alternateBounds" />
          </mxGeometry>
        </mxCell>
        <mxCell id="ohbaOP87XqiYjv760Opy-109" value="" style="shape=tableRow;horizontal=0;startSize=0;swimlaneHead=0;swimlaneBody=0;fillColor=none;collapsible=0;dropTarget=0;points=[[0,0.5],[1,0.5]];portConstraint=eastwest;top=0;left=0;right=0;bottom=0;" vertex="1" parent="ohbaOP87XqiYjv760Opy-102">
          <mxGeometry y="90" width="180" height="30" as="geometry" />
        </mxCell>
        <mxCell id="ohbaOP87XqiYjv760Opy-110" value="" style="shape=partialRectangle;connectable=0;fillColor=none;top=0;left=0;bottom=0;right=0;editable=1;overflow=hidden;whiteSpace=wrap;html=1;" vertex="1" parent="ohbaOP87XqiYjv760Opy-109">
          <mxGeometry width="50" height="30" as="geometry">
            <mxRectangle width="50" height="30" as="alternateBounds" />
          </mxGeometry>
        </mxCell>
        <mxCell id="ohbaOP87XqiYjv760Opy-111" value="TAMAÃO" style="shape=partialRectangle;connectable=0;fillColor=none;top=0;left=0;bottom=0;right=0;align=left;spacingLeft=6;overflow=hidden;whiteSpace=wrap;html=1;" vertex="1" parent="ohbaOP87XqiYjv760Opy-109">
          <mxGeometry x="50" width="130" height="30" as="geometry">
            <mxRectangle width="130" height="30" as="alternateBounds" />
          </mxGeometry>
        </mxCell>
        <mxCell id="ohbaOP87XqiYjv760Opy-115" value="PREPARAR" style="shape=table;startSize=30;container=1;collapsible=1;childLayout=tableLayout;fixedRows=1;rowLines=0;fontStyle=1;align=center;resizeLast=1;html=1;" vertex="1" parent="1">
          <mxGeometry x="-10" y="1160" width="180" height="90" as="geometry" />
        </mxCell>
        <mxCell id="ohbaOP87XqiYjv760Opy-116" value="" style="shape=tableRow;horizontal=0;startSize=0;swimlaneHead=0;swimlaneBody=0;fillColor=none;collapsible=0;dropTarget=0;points=[[0,0.5],[1,0.5]];portConstraint=eastwest;top=0;left=0;right=0;bottom=1;" vertex="1" parent="ohbaOP87XqiYjv760Opy-115">
          <mxGeometry y="30" width="180" height="30" as="geometry" />
        </mxCell>
        <mxCell id="ohbaOP87XqiYjv760Opy-117" value="PK FK" style="shape=partialRectangle;connectable=0;fillColor=none;top=0;left=0;bottom=0;right=0;fontStyle=1;overflow=hidden;whiteSpace=wrap;html=1;" vertex="1" parent="ohbaOP87XqiYjv760Opy-116">
          <mxGeometry width="60" height="30" as="geometry">
            <mxRectangle width="60" height="30" as="alternateBounds" />
          </mxGeometry>
        </mxCell>
        <mxCell id="ohbaOP87XqiYjv760Opy-118" value="DNI COCINERO" style="shape=partialRectangle;connectable=0;fillColor=none;top=0;left=0;bottom=0;right=0;align=left;spacingLeft=6;fontStyle=5;overflow=hidden;whiteSpace=wrap;html=1;" vertex="1" parent="ohbaOP87XqiYjv760Opy-116">
          <mxGeometry x="60" width="120" height="30" as="geometry">
            <mxRectangle width="120" height="30" as="alternateBounds" />
          </mxGeometry>
        </mxCell>
        <mxCell id="ohbaOP87XqiYjv760Opy-119" value="" style="shape=tableRow;horizontal=0;startSize=0;swimlaneHead=0;swimlaneBody=0;fillColor=none;collapsible=0;dropTarget=0;points=[[0,0.5],[1,0.5]];portConstraint=eastwest;top=0;left=0;right=0;bottom=0;" vertex="1" parent="ohbaOP87XqiYjv760Opy-115">
          <mxGeometry y="60" width="180" height="30" as="geometry" />
        </mxCell>
        <mxCell id="ohbaOP87XqiYjv760Opy-120" value="PK FK" style="shape=partialRectangle;connectable=0;fillColor=none;top=0;left=0;bottom=0;right=0;editable=1;overflow=hidden;whiteSpace=wrap;html=1;" vertex="1" parent="ohbaOP87XqiYjv760Opy-119">
          <mxGeometry width="60" height="30" as="geometry">
            <mxRectangle width="60" height="30" as="alternateBounds" />
          </mxGeometry>
        </mxCell>
        <mxCell id="ohbaOP87XqiYjv760Opy-121" value="ID.PLATO" style="shape=partialRectangle;connectable=0;fillColor=none;top=0;left=0;bottom=0;right=0;align=left;spacingLeft=6;overflow=hidden;whiteSpace=wrap;html=1;" vertex="1" parent="ohbaOP87XqiYjv760Opy-119">
          <mxGeometry x="60" width="120" height="30" as="geometry">
            <mxRectangle width="120" height="30" as="alternateBounds" />
          </mxGeometry>
        </mxCell>
        <mxCell id="ohbaOP87XqiYjv760Opy-132" value="CONTIENE" style="shape=table;startSize=30;container=1;collapsible=1;childLayout=tableLayout;fixedRows=1;rowLines=0;fontStyle=1;align=center;resizeLast=1;html=1;" vertex="1" parent="1">
          <mxGeometry x="670" y="965" width="180" height="150" as="geometry" />
        </mxCell>
        <mxCell id="ohbaOP87XqiYjv760Opy-133" value="" style="shape=tableRow;horizontal=0;startSize=0;swimlaneHead=0;swimlaneBody=0;fillColor=none;collapsible=0;dropTarget=0;points=[[0,0.5],[1,0.5]];portConstraint=eastwest;top=0;left=0;right=0;bottom=1;" vertex="1" parent="ohbaOP87XqiYjv760Opy-132">
          <mxGeometry y="30" width="180" height="30" as="geometry" />
        </mxCell>
        <mxCell id="ohbaOP87XqiYjv760Opy-134" value="PK FK" style="shape=partialRectangle;connectable=0;fillColor=none;top=0;left=0;bottom=0;right=0;fontStyle=1;overflow=hidden;whiteSpace=wrap;html=1;" vertex="1" parent="ohbaOP87XqiYjv760Opy-133">
          <mxGeometry width="50" height="30" as="geometry">
            <mxRectangle width="50" height="30" as="alternateBounds" />
          </mxGeometry>
        </mxCell>
        <mxCell id="ohbaOP87XqiYjv760Opy-135" value="ID. PLATO" style="shape=partialRectangle;connectable=0;fillColor=none;top=0;left=0;bottom=0;right=0;align=left;spacingLeft=6;fontStyle=5;overflow=hidden;whiteSpace=wrap;html=1;" vertex="1" parent="ohbaOP87XqiYjv760Opy-133">
          <mxGeometry x="50" width="130" height="30" as="geometry">
            <mxRectangle width="130" height="30" as="alternateBounds" />
          </mxGeometry>
        </mxCell>
        <mxCell id="ohbaOP87XqiYjv760Opy-146" value="" style="shape=tableRow;horizontal=0;startSize=0;swimlaneHead=0;swimlaneBody=0;fillColor=none;collapsible=0;dropTarget=0;points=[[0,0.5],[1,0.5]];portConstraint=eastwest;top=0;left=0;right=0;bottom=1;" vertex="1" parent="ohbaOP87XqiYjv760Opy-132">
          <mxGeometry y="60" width="180" height="30" as="geometry" />
        </mxCell>
        <mxCell id="ohbaOP87XqiYjv760Opy-147" value="PK FK" style="shape=partialRectangle;connectable=0;fillColor=none;top=0;left=0;bottom=0;right=0;fontStyle=1;overflow=hidden;whiteSpace=wrap;html=1;" vertex="1" parent="ohbaOP87XqiYjv760Opy-146">
          <mxGeometry width="50" height="30" as="geometry">
            <mxRectangle width="50" height="30" as="alternateBounds" />
          </mxGeometry>
        </mxCell>
        <mxCell id="ohbaOP87XqiYjv760Opy-148" value="NOM.INGREDIENTES" style="shape=partialRectangle;connectable=0;fillColor=none;top=0;left=0;bottom=0;right=0;align=left;spacingLeft=6;fontStyle=5;overflow=hidden;whiteSpace=wrap;html=1;" vertex="1" parent="ohbaOP87XqiYjv760Opy-146">
          <mxGeometry x="50" width="130" height="30" as="geometry">
            <mxRectangle width="130" height="30" as="alternateBounds" />
          </mxGeometry>
        </mxCell>
        <mxCell id="ohbaOP87XqiYjv760Opy-139" value="" style="shape=tableRow;horizontal=0;startSize=0;swimlaneHead=0;swimlaneBody=0;fillColor=none;collapsible=0;dropTarget=0;points=[[0,0.5],[1,0.5]];portConstraint=eastwest;top=0;left=0;right=0;bottom=0;" vertex="1" parent="ohbaOP87XqiYjv760Opy-132">
          <mxGeometry y="90" width="180" height="30" as="geometry" />
        </mxCell>
        <mxCell id="ohbaOP87XqiYjv760Opy-140" value="" style="shape=partialRectangle;connectable=0;fillColor=none;top=0;left=0;bottom=0;right=0;editable=1;overflow=hidden;whiteSpace=wrap;html=1;" vertex="1" parent="ohbaOP87XqiYjv760Opy-139">
          <mxGeometry width="50" height="30" as="geometry">
            <mxRectangle width="50" height="30" as="alternateBounds" />
          </mxGeometry>
        </mxCell>
        <mxCell id="ohbaOP87XqiYjv760Opy-141" value="CANTIDAD" style="shape=partialRectangle;connectable=0;fillColor=none;top=0;left=0;bottom=0;right=0;align=left;spacingLeft=6;overflow=hidden;whiteSpace=wrap;html=1;" vertex="1" parent="ohbaOP87XqiYjv760Opy-139">
          <mxGeometry x="50" width="130" height="30" as="geometry">
            <mxRectangle width="130" height="30" as="alternateBounds" />
          </mxGeometry>
        </mxCell>
        <mxCell id="ohbaOP87XqiYjv760Opy-142" value="" style="shape=tableRow;horizontal=0;startSize=0;swimlaneHead=0;swimlaneBody=0;fillColor=none;collapsible=0;dropTarget=0;points=[[0,0.5],[1,0.5]];portConstraint=eastwest;top=0;left=0;right=0;bottom=0;" vertex="1" parent="ohbaOP87XqiYjv760Opy-132">
          <mxGeometry y="120" width="180" height="30" as="geometry" />
        </mxCell>
        <mxCell id="ohbaOP87XqiYjv760Opy-143" value="" style="shape=partialRectangle;connectable=0;fillColor=none;top=0;left=0;bottom=0;right=0;editable=1;overflow=hidden;whiteSpace=wrap;html=1;" vertex="1" parent="ohbaOP87XqiYjv760Opy-142">
          <mxGeometry width="50" height="30" as="geometry">
            <mxRectangle width="50" height="30" as="alternateBounds" />
          </mxGeometry>
        </mxCell>
        <mxCell id="ohbaOP87XqiYjv760Opy-144" value="Row 3" style="shape=partialRectangle;connectable=0;fillColor=none;top=0;left=0;bottom=0;right=0;align=left;spacingLeft=6;overflow=hidden;whiteSpace=wrap;html=1;" vertex="1" parent="ohbaOP87XqiYjv760Opy-142">
          <mxGeometry x="50" width="130" height="30" as="geometry">
            <mxRectangle width="130" height="30" as="alternateBounds" />
          </mxGeometry>
        </mxCell>
        <mxCell id="ohbaOP87XqiYjv760Opy-149" style="edgeStyle=orthogonalEdgeStyle;rounded=0;orthogonalLoop=1;jettySize=auto;html=1;exitX=0.75;exitY=0;exitDx=0;exitDy=0;entryX=0.704;entryY=-0.028;entryDx=0;entryDy=0;entryPerimeter=0;" edge="1" parent="1" source="ohbaOP87XqiYjv760Opy-102" target="ohbaOP87XqiYjv760Opy-102">
          <mxGeometry relative="1" as="geometry" />
        </mxCell>
        <mxCell id="ohbaOP87XqiYjv760Opy-150" value="ESTAN" style="shape=table;startSize=30;container=1;collapsible=1;childLayout=tableLayout;fixedRows=1;rowLines=0;fontStyle=1;align=center;resizeLast=1;html=1;" vertex="1" parent="1">
          <mxGeometry x="372.5" y="1160" width="180" height="150" as="geometry" />
        </mxCell>
        <mxCell id="ohbaOP87XqiYjv760Opy-151" value="" style="shape=tableRow;horizontal=0;startSize=0;swimlaneHead=0;swimlaneBody=0;fillColor=none;collapsible=0;dropTarget=0;points=[[0,0.5],[1,0.5]];portConstraint=eastwest;top=0;left=0;right=0;bottom=1;" vertex="1" parent="ohbaOP87XqiYjv760Opy-150">
          <mxGeometry y="30" width="180" height="30" as="geometry" />
        </mxCell>
        <mxCell id="ohbaOP87XqiYjv760Opy-152" value="PK FK" style="shape=partialRectangle;connectable=0;fillColor=none;top=0;left=0;bottom=0;right=0;fontStyle=1;overflow=hidden;whiteSpace=wrap;html=1;" vertex="1" parent="ohbaOP87XqiYjv760Opy-151">
          <mxGeometry width="65" height="30" as="geometry">
            <mxRectangle width="65" height="30" as="alternateBounds" />
          </mxGeometry>
        </mxCell>
        <mxCell id="ohbaOP87XqiYjv760Opy-153" value="NOM INGREDIENTES" style="shape=partialRectangle;connectable=0;fillColor=none;top=0;left=0;bottom=0;right=0;align=left;spacingLeft=6;fontStyle=5;overflow=hidden;whiteSpace=wrap;html=1;" vertex="1" parent="ohbaOP87XqiYjv760Opy-151">
          <mxGeometry x="65" width="115" height="30" as="geometry">
            <mxRectangle width="115" height="30" as="alternateBounds" />
          </mxGeometry>
        </mxCell>
        <mxCell id="ohbaOP87XqiYjv760Opy-154" value="" style="shape=tableRow;horizontal=0;startSize=0;swimlaneHead=0;swimlaneBody=0;fillColor=none;collapsible=0;dropTarget=0;points=[[0,0.5],[1,0.5]];portConstraint=eastwest;top=0;left=0;right=0;bottom=0;" vertex="1" parent="ohbaOP87XqiYjv760Opy-150">
          <mxGeometry y="60" width="180" height="30" as="geometry" />
        </mxCell>
        <mxCell id="ohbaOP87XqiYjv760Opy-155" value="PK FK" style="shape=partialRectangle;connectable=0;fillColor=none;top=0;left=0;bottom=0;right=0;editable=1;overflow=hidden;whiteSpace=wrap;html=1;" vertex="1" parent="ohbaOP87XqiYjv760Opy-154">
          <mxGeometry width="65" height="30" as="geometry">
            <mxRectangle width="65" height="30" as="alternateBounds" />
          </mxGeometry>
        </mxCell>
        <mxCell id="ohbaOP87XqiYjv760Opy-156" value="LETRAS" style="shape=partialRectangle;connectable=0;fillColor=none;top=0;left=0;bottom=0;right=0;align=left;spacingLeft=6;overflow=hidden;whiteSpace=wrap;html=1;" vertex="1" parent="ohbaOP87XqiYjv760Opy-154">
          <mxGeometry x="65" width="115" height="30" as="geometry">
            <mxRectangle width="115" height="30" as="alternateBounds" />
          </mxGeometry>
        </mxCell>
        <mxCell id="ohbaOP87XqiYjv760Opy-157" value="" style="shape=tableRow;horizontal=0;startSize=0;swimlaneHead=0;swimlaneBody=0;fillColor=none;collapsible=0;dropTarget=0;points=[[0,0.5],[1,0.5]];portConstraint=eastwest;top=0;left=0;right=0;bottom=0;" vertex="1" parent="ohbaOP87XqiYjv760Opy-150">
          <mxGeometry y="90" width="180" height="30" as="geometry" />
        </mxCell>
        <mxCell id="ohbaOP87XqiYjv760Opy-158" value="PK FK" style="shape=partialRectangle;connectable=0;fillColor=none;top=0;left=0;bottom=0;right=0;editable=1;overflow=hidden;whiteSpace=wrap;html=1;" vertex="1" parent="ohbaOP87XqiYjv760Opy-157">
          <mxGeometry width="65" height="30" as="geometry">
            <mxRectangle width="65" height="30" as="alternateBounds" />
          </mxGeometry>
        </mxCell>
        <mxCell id="ohbaOP87XqiYjv760Opy-159" value="NOM. ALMACEN" style="shape=partialRectangle;connectable=0;fillColor=none;top=0;left=0;bottom=0;right=0;align=left;spacingLeft=6;overflow=hidden;whiteSpace=wrap;html=1;" vertex="1" parent="ohbaOP87XqiYjv760Opy-157">
          <mxGeometry x="65" width="115" height="30" as="geometry">
            <mxRectangle width="115" height="30" as="alternateBounds" />
          </mxGeometry>
        </mxCell>
        <mxCell id="ohbaOP87XqiYjv760Opy-160" value="" style="shape=tableRow;horizontal=0;startSize=0;swimlaneHead=0;swimlaneBody=0;fillColor=none;collapsible=0;dropTarget=0;points=[[0,0.5],[1,0.5]];portConstraint=eastwest;top=0;left=0;right=0;bottom=0;" vertex="1" parent="ohbaOP87XqiYjv760Opy-150">
          <mxGeometry y="120" width="180" height="30" as="geometry" />
        </mxCell>
        <mxCell id="ohbaOP87XqiYjv760Opy-161" value="" style="shape=partialRectangle;connectable=0;fillColor=none;top=0;left=0;bottom=0;right=0;editable=1;overflow=hidden;whiteSpace=wrap;html=1;" vertex="1" parent="ohbaOP87XqiYjv760Opy-160">
          <mxGeometry width="65" height="30" as="geometry">
            <mxRectangle width="65" height="30" as="alternateBounds" />
          </mxGeometry>
        </mxCell>
        <mxCell id="ohbaOP87XqiYjv760Opy-162" value="CANTIDAD" style="shape=partialRectangle;connectable=0;fillColor=none;top=0;left=0;bottom=0;right=0;align=left;spacingLeft=6;overflow=hidden;whiteSpace=wrap;html=1;" vertex="1" parent="ohbaOP87XqiYjv760Opy-160">
          <mxGeometry x="65" width="115" height="30" as="geometry">
            <mxRectangle width="115" height="30" as="alternateBounds" />
          </mxGeometry>
        </mxCell>
        <mxCell id="ohbaOP87XqiYjv760Opy-163" value="" style="shape=stencil(rVnZchQxDPyafVXJt/0M4T9SxUK2CAmVhOvvkVlsRpqZHlLF22bjXo2kbh2eU3jzfHf75Xzy/Pzy9Pjp/P3y/uXuFN6evL883J2fLi/y6RRuTuHNh8en88enx68P769/f7ntJ/unz4/f+i/8uOKYousgzz+vX3hPsfz+5t31/P3lYXHekw/qvGvk6v75RDXq85Fa3j/vmGrWAEetAUCkWjRAfGIAaNS0CxWeFxdSUucz9b/2zgdHPprzGUQ0ZCrNPM+fH9g8Hx3VaiOUEwBkCjrHTrISQM6Y2GtSMAXwSMlT0znwESYtJQo6y75RAUlIZbByAMKBD42CjpLEzQFAlrTpKEncnAOAMIg/ABK3BvKQk7UgYSiASblQ0EzNQm0gttwoaSp1m8BCcVQMVxuUZwlWz/JNQBbERZ3pImFFgELJWKhQP0UKkAG04dUmoPL4vSk4ITxIXPXEeWUBcKkG8rpkiFcZJK5GisaHNLzaBkhR0lwqftjcBuQVNUQhQKK12Cjl+RPbgDpiMgEeA9pQ8NRDHqV5E9DcSNNCcQmEtflR2aemRQ8IEEYVmgAedWQbkIg1QOpSBlWjZctWqXwR6KEVYl1mvIOKE4DtD2E0+W1AparDysOpnRbN1mmpVAwk2mZRWbAVNRQB1JWAGDndKJsmKipHXGqjkk6AH314D+C1D13loFQKgKO1wK/KQy9tyIIozhSBdGQha8UVnOoO0JNAjpRR4qrNgzTidOC0tiBNEfXpHlZNviQDIpJoW7Vd0TRmawwWgGbiTj6daRmIYJlpG05nlAcRkOnTTO6VGj0ofW1EccGNAwVVnWphX8KCKCt+w/Ld7ORdcZMTgBmYRKMBx9U5awGW70rNAJg84kZdOZ2PBJENwMFhY0OjeRD4PwFEEDrTfg5pexbMxtHbKLIg4712Os5v9tqoGe9FQWg0lkbtzDjjsOSCbaN9/sHDhpmweuIQwA1uLpocdJpHl53ki8R4JDMSlZmrAInK0Fe0BQmDQxbymGsnII1heXdw1Y8kqSxAQOKimXSFXR6MAr0tGwuTv/843i+q5+4Gka0JD0z0Ru6tE2gh6FuQ5oZIBLGv71lulQggOdnbzLVDm3c7e7uiXZvqWAZ3t1HttOQSNS2ZIu3aJAUdb9R29Ytw5eg7u+mK0sXQku9s4jK+v0rNsi81OJ6kMoaRCYhw35VCZyzECht1v50x1TjAi4q4GgVCg+N6zGO0mIB5K7d7h6UzHRg2uX5JZragAhez9S1cv4oE1PBzeFkAEnikfo+Y7CNVENZ+U9ms0wzC2u9CTVgd9CGtzgtX0NWmbUCSZ5Q2tjuTEAl5zKs7uDCmoZ3zvtjzKEBsb+CEV/j33cpfJGa2G1wosKPz2L4W8Udjz2pGD/7g+c29rBAI5ZdtY+sMBa2TbbETRh3ky7w8iPDKlC3fhIHomvi1LyeOz8uHv29CPlzu768vUpb/t29O5KvrW5dw8ws=);lineShape=1;" vertex="1" parent="1">
          <mxGeometry x="179.24582461691148" y="805.66694291774" width="168.60422491609884" height="7.035840497483757" as="geometry" />
        </mxCell>
        <mxCell id="ohbaOP87XqiYjv760Opy-164" value="" style="shape=stencil(7VvJch03DPwaXVncQZ4d5z9cZTlWxbFcsrP9fcCoyDdszPSLbzn4pgU9QxJbA8Q8pDdfP7778vgQ/ddvL8+/Pv759P7bx4f000OMT58/Pr48fdOfHtLbh/Tmw/PL4y8vz79/fv/6+5d3Q3L89NvzH+MJf73ienetD1T0f7/+JTif/v3Dz6/yn54+H+WbK2mTj64EIl9dC5t8dr4T+eKq3+SL85XIZxfbJl+dFyIfXd+fLy4w+eDKfj7NRXY+3uV9v92N367kW3dJ9vP3dEFNFVAQ0BsBiNFwcMIBqe6A6ITouKmO8w5ITojSFABKC6pl9ga1it3qQnWZHWtGNQeZf7kChF1vobvMAAn3EFUPTHHRpf2UhusQV2jBpX1Jw3eY4tRydsWp82SiB2muwxuqqwwgqAd1n5oJoLoUd0BziWxaliEcAMy8JbkKelDFsTfEuYADgL4hzIgyAcm7QoyvakzdTykFFwoBtOlfBwBzoKqnvgeBpLtib1h6PQA6iWO1ONmtNSWX2Ruyaw0BnZhGXYlgATLfgy4gIYBZa40YlxTQmeKiiwAoNBjXgNlKAZkBvGsG0EiYKSY/p0ptqTSjhzrP7RwgTswbhL1BbWn36SQ0LpWCkS+tFHMOUNMoCKgkP5Q4M9oBICQIFFWcIID5Q/EY+VKbizwF5I7EQQGBnFJuxrw51ciLuRwAiZh3Vp82AJZFs0mKadG/c0A8WVIhm04aesv3vEHVVKrZA9GD+pfP5pRIXNLAWLwBEGu9pY/jksgbNGcWo2lm3prGIYsqoJNNx+QSLIknRWX9si8pe2pLSnbSfko5TOZ7ClA6FQAQpw+eA9oMKgugYYGESmV4AQCFRr7BIWFJ1XWiaWWpkKeH0xLzHrR29weNIyxqhDzTxwIEShKVaffdNEribzBZVKMtYzNK/vvucRrPmfEpoOwepymGhRkFBFhSo1Q6GGutKzxfASADjVTP3rC4/AKkSSauABDulUElZhrexd34lKMxctKROShrLMQd+jzzJc9pbnd+l1feS0ssZAESeVmJ3imZcitN4PD8Mt94IQ/1mBYrgbFDJIdaDVXiaXXG9NUI0HKL8dvZt1jygeqroE1rwShUHvSrFWljDAbPX0teJp8xqzXOVDMWDFrls/PMmMib0KyZ0YVbo50VU160ZeHneR8bVSrPPD7Nvtdq9HhajSQ8/x44S3Btj0A9UnvWqGvkG/EvU+v0xDPN5MdLfrXeLuShRFV5xrADluW9UMqySuqDfCcExGMF3KuLVD5WfD47H49cWeUDsTeP1GCcD0mrHmuivjzuSj6jPGPWZ/KJ+LvH+NZ5Z9cj/1N74/oKxj5ZWWryqcqz1pTVb6KlikcOPuSJf3mk4GM91B6y3S89n9xRvtHzAYIy7IfEk1N/oc9H/fZZbv5He+v37DOgfOT2D+tplF/5ee9xkOf6gvJE5RPdL8Yr3g/wJj432mVRezPr5/J4UaHrof6b7X7p84s9T6ov4ANDX1wezrPfsc8SUb7Q5+eK8ozfWn/vNN+pfuFaxnta39oA12m16mf6OcgzwmcDeqddiTOHZI0V65CdXjV6LEjUIIQ7pDEg1hmy58P7bX7ShaPDUH0lE4DY1aQ1oEYLDGug7U7C/l55PJ9Kr3p/EKAfBOh/ToCM/QRqD2IIE1t/wNvX8XzWTTQJOM2S6UJejH5Z/IwmPsdJES7kkUAEaj9x/vdQALOEF2c6P8hHcp5ppvNDQc7iT8K2Y2vUfmzBL5RwZNPQEUqY8uwwHhoi9PIECVYr9A4roz2oPL2RwvMfMw+0wQT5riUa3woSvhbpUEfBBkfz1H8r2oN02lCr2ICQNiP8RQMRGkbC852gvQlvcDTkP5Lo5UHDeChxZtgLeZg6EE8J6xpMOjSI2T1Xx7vuuiaLrjrc3nS4WUJVALSAaqY7UIDsLlkTrQFCwJuGcYPP3hCwaqiedhGDaZMVft0Y1uDGAlRalwdz113KzOTnABNIywp9VwA41hLnKNI5IOOkUvH8tiTj4FHusxw6BxSsDrPQ7nKoGH0zn5sIgnQ0Z0qHxkAZXDcmyidCxw5DDrRDMhjarrjsacQbPVeYOeBDbOOe2NymF9ZkLqjpMQZB/OHkrluox43bdDOZQdO+va8Xeu17MhEg9Or6ZObgzpLsVIPM4HmemiNyxySUC+aMxcS9NxT06bFpxi7sdInQfs/J/IrQcD8mZMzQDuvojRmciABWYY4pH7Np1mIZc0Sw6eranUmlhABm3mMWygDoeFY1c0R3BsDE7EGZFjulNmnXAUBvKvs8kwOAMXnNmbikNS14DgjG4/Ks3s4BEcmqApgtjdlAjwBmGsosgJykNG9szwF2iC1RTY8JSjNyyWLrmNGEPURaYVQ7uccpel1jdwsQ+B6amavjTEA5J04fetqFk4AedyOm54CIOW6MOrAh54SFg1Jr1ugQc1Ue+WygmPl3TZNsbFQEL3e1umG9UC11wJZi4SP5phsXOf1pAT1uFOys/IlYb4yOBjklLTfhxuR2h3IFAD0EPn2oBTDEpSC0xNUKG2r0UOjgkZb8UHAo9aWnVHHE7DZ/dQ4QvCfSEoTd+4/vQeDTCM8/jWg4kxY8/w6hm843LVC6xxKIN6bHNzlQ6dLypJs58Mq/4cloqYUS+zEYsD8/00K9VzNbz59vOgGB3lx1MyrGa9be8Xz4RdSQF5Rn++1Y7XnaiBnyuB56nqZkWK3wS/kO8rS89aaT4flg6RmAlVVnK2IsspuRY09ns243hTd55vK3q8uDPF/P931FeFdef7h9svjh6dOn1y8ej//HTxz1T6+fR6a3/wA=);lineShape=1;" vertex="1" parent="1">
          <mxGeometry x="174.9542403140133" y="867.2469494636589" width="496.46601865740195" height="143.088722041879" as="geometry" />
        </mxCell>
        <mxCell id="ohbaOP87XqiYjv760Opy-165" value="" style="shape=stencil(lVhJchsxDHyNriiCO86O8w9XWY5VcSyXrGy/DxiFYxGcaVVuWtAzANFoANyFu/fnh7f9zrv38+n4df/z8Hh+3oVPO+8Pr8/70+Gsn3bhfhfuno6n/ZfT8fvr4+X720OzbJ++HX+0J/y64EQohoby7vfll5Sp8N9fPl8AL4fXa0AmmQAuAQBT8CMgUSrbgBooVwvwfhtQKrkyAiIJeENhimIBRbYBefn7CpDzNiBV4gmQEMCTdxYQgUuxrAEiAARyeQQUciDTQWzQ2VFxAFCIxzzouVUQdEidOQtAYKZDII4DoERiFANbl5Qs/9i1CvBCbqS30tEBLvlMaaR3LZSASz5atlahgFziTrUOEEcMKo71eWJdqoAarDU9VlyN5BFgodoCcOQAW5ntG0qCXFLuGXuGzFAJGB3KGjJIm2ZtrJ5GVZAEZaoRMelvXCceJVP/3HVzPcmUjKo68sB/FVW2/njgv+ulvsSbOkk27NmoS6YA/FFvR47GShXky1Ec86vylMB5qvKM+Y1MDsSr/zprnxFByY9KFFNvWxv2cbTX/CboTzI9TeD5qLcjH1QZGfIhj/E2nQPSO3VAlQgPzyeMzxcVXvh8I3JSKQHNclRHfrJzPYUbgJTsCwJwyNmCkQBbvhaA6QP5hr3pGx9TyZa9EaAKBwQ3dW/plN0qSFPA2gpxQZqCSTfOP5uC4Rv+C1t7Ri3GNu6I88W9hy72gltYl5srgRPQtrXAxgagAirQH2OvDQ8VwKo9FEQZ7WN/wEZ/MenC1RWoGvbA4kp22tUBoYBgs1UrfaEH7tRO3cUek1/6uNPtQ+zHtX743lavDr8o4DYATf0LrU1c7AChA3xFAF3MzMShFAcxNwaZlhRgRbZB1AA87JGatmj2LAeD1ryJKeIMu3Yb16e2HUHiQrB9JmS4+jUijFQNHtZ9W2oM9ypczNraNB6rHjQa5dpiNrK1NTcQ9Lz6MR525+WyAcAb5vVVAbCgpwVZAWj+mFdwBaCg5yVfAQEI5HyN0GoQJG6+qNC9qIA3zFchCkCZni9bOFFGly3Sb0qu34DWJulb1VXQAvKgADN4tVEblKgCxGj3ooWbgDEGLSDE1qvJb6nRAJf2NYSOvyh1k1NahRF1lCnspt9goZsPNjFs6HPqUoSCP5NDRxh0GfL/d323Afrh42rx6fDycrmZvP7fXkXqT5drzHD/Bw==);lineShape=1;" vertex="1" parent="1">
          <mxGeometry x="541.4807965971681" y="809.3387770059821" width="132.6017511066369" height="3.6725740056948175" as="geometry" />
        </mxCell>
        <mxCell id="ohbaOP87XqiYjv760Opy-166" value="" style="shape=stencil(7VrJch03DPwaXVlcwO3sOP/hKsuRKorkkuUsfx8wCkdkY14/uyqHHHxTHGAeiaXRAHiT3n25+/D59ib6Ly/PT7/e/nH/8eXuJv10E+P9493t8/2L/nWT3t+kd5+enm9/eX76+vjx9b8/fxiS46/fnn4fX/jzVS9mV9vQiv6v13/xzod//uHnV/mH+8dFPkXnK8gnT+SLSx3kS7wsL97VsskH5wuR1/MnkK/k/Nm7tt83uky+nwveN7ncLsuX4OJ+HnGFfL8UJ3GTz64R+1T9vt/k6zzguXx2fbdnmw45lW+HO6d8d42cvyXX9/OHwH+guL47IETXE1Horu4eCOKEXLlHdEEoLhCbdnERjlRdY7+g34Mg7a6QS/fqZFfQMM0kTHtzeTerxl1iR+ougkJ2IVMFMGssrpE7BK/IsIeGxlJldtXQyXvuaPITV49L7I5QuBFmVzWT7AriErNrnSc+FNSXTKFMuDoUquvMEWp2OFJ3XYhCQldLpBDcw0SIQ0GcZ37wLuyOU9TsJDZaw0tLna48V6gu7peWPuvKuUJ2ZQ+NrLhN6kgTjO+cnBCztjhT+FDIM2vPFQLGkmI/heI+A+FQaE7IpWtDbC3eReLpWlzei2eJ1NNVJlgfCmnWx3MFRZU940p2whQigkCpLjAFjwWiaHSxCtqxYuknAlf4N+UPheAKCQ1VgJqut2IpeqKgGcePFPbwrhyNVSHCpcs1hQS/UGl4qwIQDQ3HK2bNwDT6tSNBtCqZYNzNHkkVOlcIe2XXpG3McQ2LnMJCZXfQFAW6lGiN0+jvO2ooUtHwrgj3AwtJAo382v2gFCqTCqSUssAdKuW4g4OCwlFXLymgldT3zKyqsFtJa1JmZjW/oFVPuALE0qCB/EhQsrQQe+aHo2YuCpWZVbA+KDfw7Ehxti6HQpmwcK6gdMoosHzIJlqVECVyaS2yAGRKuRgIDKLQUYHRSuUueOk++ft5R9mMHzj5Vg5Z9iMtVPZUYzTF9fs0ogsVD9UIDARDscYtiK9DRm6sCon4WtuqaDzRGdtwOaE846EyYWuJJTo6mMi7BCu7cZpd3iLPmgGVN8nAeoE0UXSRD8SgyeROpp2AYP1U+cZyDRmuytPSM4vrIk9pD/KqIU/joRn4YqObZvyr8qxTMvF2pN2FBnTyldWgtGPFQqgeZgAcsXUbGcNyco4VVqwjFvU4C1N55gE/yf4iz4YA3kREo9zcz3xaMrgTlAsGgipt2iJyVJVnzMVmZKVTEsFGuB8YdiHDujk/pV4TLxf5Ru77vQhascyoPOMsFQn2mH/Q83hzHo4oNv5ZguV5u6UksSqZcLY75AlixRN7dpbws3Vdz0/zpXiUZ9zdzFFUXgg+mIHZ8C/HBxNvrML4aY01HyleISGtFH8s+auUtYupwFw+G/p6RPh/Iv+DcfxgHP9vxhGigdBCXRDkJAeE1ew291VrUSKXHlFtqgwba6pZbZmhsJImy1jrGLFSagbo2lyDnSdCMj0iR0ZpJ42xZ1CUpk3W3GetdzGNcabFJjfcVHahM/XiZ6gtAwqant7gXaR7AVVoHhXokMWbjL4yxjHT4jEoIrFUvNlvdsoBS0BS3TiJUoUAY81K94+qAK19K1zB7NRb5neI0ybL0JEVwhIxH1rizNfsBVrke+yEXLwFPmmVGTnr8Jf5QRDIro2Xj0Hstw6wBfnptRG5zGnbtw7hBf1QOQMoGSlnzdcUoEcbqwp2pIzz6LEMYRmXzaUDfxJRMFqrp9haKuJSaTy825xvHwqV7snGjmn3g96KMTe9ouyX1oAvrPVKOBBUWGDhPVZ3sInzdMc0loOwr2yz3z5XaBhLmXMNTRfopzIfYGtC1h0qtUyy8bKCStxDI/NYGtuY/ReED38VSYHCSaW4pFhddsdJpjN1LR8AlYN9sP29R7gXHhr9WI1PhdTpkbTuw/uUVClv7QaME+etY5MBvyCUCQziDHeITpiC2QAl/nKsG5gZ/QF7bVIQKkfDwhS0W9gzbnRQzHEZGVnkjxbUD/jEJlAqrfwL3rOETls+DT54IaANAoNKDW+A+8Cb3EF24PmV8KcdCd+ChETLrsIMpGgIlEq/VeVDwc/W91zB8iU62NUCBByRDz60eEAnWvgaruFkKNPzK+x6gElqUW1/IO4SzWZFOI+vKOmgpGFuBrodUzCBSUmgYJHCfMT1Js9eddnJsaeAqvIpoTwbfCds9jwtOmMyJCDPBhnDPfh9VjajKQiet/Rm8udnkbt4Hvx+5PIwqfIzgS7aE+1/xb/mPHTxI4js/BX0SD/z/SsL5e95ZX1dXv94e9L96f7h4fVF+Pr/8Qm4/tPr8/H0/m8=);lineShape=1;" vertex="1" parent="1">
          <mxGeometry x="174.31463864096872" y="1013.8390173400439" width="38.286968923712266" height="195.09681556258997" as="geometry" />
        </mxCell>
        <mxCell id="ohbaOP87XqiYjv760Opy-167" value="" style="shape=stencil(rVrJch03DPwaXVEkQXA5O85/uMpypIoiuWQ5y98HkxfOe2zOtOKq3LSgh8TewMydfvj28Onr/V0K395eX369/+Px89vDnf50l9Lj88P96+Ob/3SnH+/0w5eX1/tfXl++P3++/P710ya5/fTby+/bE/684ILEtoFS+Ovyh94l6z9/+fki//T4fCOfJKZZvklO5/JZNMzyVZQ8v0iIs3wRbefyTWKf5U1COZePQarOAJWcCUCHfjsgilUC8AvPgMZNGrvorHOrEoz4IInOSrcsRnRIJlpmQJTWCcDNOlupdklEaQ1S5hNqkUJ00CR91qFmCcTRahLzDIiSGWA34gCUJp2Ehjaps+NKoWbNYdx4B2RJ5IQcx793gOdTIICEoVECtVJWDD5zV0YC8BvPZrUikemw+MH2HD8D9NlKlsTYCUXqHBoWpDMdqpT5StmjlRWlJjZXJX+EsRP6CLUdYCPgDwF+Y0hR90xjgCgKOqSRg8eAJGkObw9HI0qbouO0j2J7DPCEnGPJU8rYlbL02azq5ZxUDTNpc5nRTKuGx2aZ/aAe8OwEv/FsJS88LDQ8XTJcKQ67HQM61lblKeoZDIDE61KJo0HtgCqNZFzZ82sHuN2IlYpKnR3nHcNIf/A61+bwTrwDeSWNsx+S91Xi6VLHv3fA3vWOAW3RwVOKndAXHQI9wftNmE/wzs2qRk2YcbFJYSeopDn4YqWVry7V2wEsWquN4r4DCvWDAzpcyWjwed+HLuqASPKhVozWmGl/qG34dQeodJLTzl3+rUI3gMSU7lLnMhOTFKJ0C1g1HBAYII6+vwMiDT4HQFPcmCzJ6ZaQtzogEqUdAH3ao5sxb0XKx9uJc9Q0P3/vwmfykJ+NP9+QBXgJYRYtg9Fe5QOJIpfvQN5oN3QSX4B/SiCp2Ro6zEbvOpZ3jhNAnk0+PWAWZBrTLg+Zn2lp8bEIkkZpL+8JJzGl8elzWp25cKLFtLt6CeQZOffB0SBhpJEE2wZTKEO0G/jgG6DOUYLng3ic9eW8wuUhvwKN523QLyjP4qFjfrk8vz9UrEBnHZfvqG9i9uxYr8Kg0CeTf8D+HegAuR1gIF+4QRvKV5YwHQM6DDp8Jm/ogMbvr+jgd+QjGrTx+wdFfVkCNywoYUTUmXzD+7CGcSSvLOHb6t/E/RvQnmy07vsQ+p8TJmN8vpOQtiQ8v09dEpgVuL7aM3L5XtGepEAfJyQPuOUAxlD6wvDDyLhTAy0J83/K1zGF3XQYljBlNKCbDsblISE5a+3LMJCGgc86KqwcdETsWceGnYbygpJw0M20om+L2ALytGMHHBGNPr8tHck45e445Bbqr5Xx7bPTGaOE0aoOCngmDxvQStcAznB1jrdGV4Eb40ZGzxqky8N9Oi2gPgHg6p1PYTom05uRh1EmB6QFwNZ6PiNBC/axjdW4bc++APo7gyGwysTHJK+Zy3DLlN6G22V8ZmXR520ouz6gs7x3AO49+GhS6zDiDYD5oZYx2t2sMRLprdVwWI2F1oqalzVGpRuuuuzQYhvL+7PtEMwn0QkG3z/Zsn9isVQDEoqtAbLVZB+M+2aHVtnbuooUylsIPaFgC9x6AqkZxSTDlTJVuiwrMa/ana0mFV9pbosA4riS8B3l9XXZ2cYXiG/ib9Osjxvf7JTZdsgBuKqP9J3j9lZo2Yuz6dUqvshVH+/ZCQUXuModZzbWKTug0ASyjAsWrYOQHQN0tO8d0EewHAMSEsjMRxyLOJNub/A4IADlybRUWsBozUanuryQklxpuc8Ni/H29oukqD8PaJtrRd85FtwkuKGZ47JhY3ffs6aYlzdRHo5sFsyKPc549Xa/4jaQTzs54pW8jigza8D1gJc2ttD0YAa67dWWzSOeLtAUC88HNVzZ1UjLvdcIgx0rpw5ethJQ3DI+FDgEbJQTTuiUhHo3wLUy3wtuQ9HsOOelnX/P0ZbvOdg7lo2KwAmdboKcsIEOPgoxKznpxM9klFaNhhl63Y4etzgsAdvsSlTOSJZ8NmYaL7z7ukw6lA/Ira7LvBN56D3X7eKJPOh7s8w4AeiPAmDWfvdGsS7yJJcDvoC6bktO5KFRdR6jYfmQq9Mav+yCtn0z1Xd9fiHFLiyzZ6d8/sg+bFv8ox/SvS/vP1y/2vvy+PR0+ejv9v/4lZ//6fKFoH78Gw==);lineShape=1;" vertex="1" parent="1">
          <mxGeometry x="179.24538638517765" y="993.6026866478551" width="190.20466969646563" height="241.814562798927" as="geometry" />
        </mxCell>
        <mxCell id="ohbaOP87XqiYjv760Opy-168" value="" style="shape=stencil(lVbbcusgDPwav+6ABAiee/mPzDRtPE2TTpq25/z9wcd1G9FYid8wsFjSLos6vnnbrF7XHbm342H/vP7sH46bjm87on63WR/6Yx11fNfxzeP+sH467N93D+P362rYOYxe9h/DCX9GnHcOzg0wcn+/phiJ/s/cj4htvztBlAJmBcgJIRuABIkKUByymwfkAhINCEgyDxBByhpQZ8o8IDFIJ12zijwPCNImfVK4swj2kND+wqV5gM/T8jcgmWUSiA6pMIL1A2TSvFUmjSI5FB1PjnCGMCKo0YWDGOf7AF8UoPLoDZopoWjWJCAaEQWC0yEJw1spCEpZAhiW/ZKQag0bFi4kXaUv0pbVksUgMy28C7yVPAVwpTAKgRql2srLHqWRqi3tlEGNZdiXJxKSDuni/UyTOK+0ACKwprp82855fVf5a6ov2Bj/Stpm2k2nXWnEy/cvexk8Qmw4AAfLMBoDk6kA548nRO3y9lWr8SQdP00mfr781D47tn8FRsnNfktxMbVuZO9Pvwzejkcygl+QbxYEXlDPqt6mPjZf1VfiIj0s70WuQdTBT/Pz2G+3Y+90ut42S3VqbLT47h8=);lineShape=1;" vertex="1" parent="1">
          <mxGeometry x="179.05299365975839" y="1229.7265598014674" width="1.8940126804833806" height="6.901127384236436" as="geometry" />
        </mxCell>
        <mxCell id="ohbaOP87XqiYjv760Opy-169" value="" style="shape=stencil(7VnJUhwxDP2auapsy4t8JuQ/qGIIUyEMBWT7+6gz5aYtjx+QXLkNjZ5b25Nk9Y4vnm6vHva74J6eH49f9z8P18+3O/60C+Fwf7t/PDzrrx1f7vji5vi4//J4/H5/ffr74WqRXH59O/5YTvh1wtVKIS+o4H6fnnjnyLm/jz6fEHeH+y0ik8j7EEwSO0QVSh4APOXQAwoVAJBK3veA3I44D8gUe7NrogRsELUh9YBIEankqJo3BCplDiiFUu/X6ogZAJhc6QCLVQCQC2XuAZ4q8FL2LUwNoEr6NAekSNUANJR1DohCro90TlTBG6JvqbYCHHkQOI4UepVUyZLngCDk+8DFSjkCAFMygAwDFxyF3obIVGQO8Jr9feDUDRm8wScSo5KjhACRfP8GrpBxPpDvk4+lVZLzAK0RfRFgzVbEBxKjUYQmpMauVT5QBgox1drLe4ogVfU0sfKCXEqpP18t8iDIgVKvf8AlLJB4ez6qYFotjLzACHNj+mqvg/ozBR78A88P5nzlEbCXLWk4NWbP7DXxzbD+Blu6NKE99H8259dX4hujlRcob8vQWjYm+Wbasso7kM9Dj1V9EtDHUTH+D9D/3tYsRxGaa5qZb++biLPJNpg8ob17bQJUQJcJtu+tPWF2ei+uxQ5RUUPbp45WU6T9EFot12jgGtq2yguU96M86HiaCnHQB6SaRj5Ye1FpHvqj+jMD6jpLdSEG0V0HhpdkqNDaYIjbOsHMWBNcEhBbZ9ucpg7Q3dtpBo/eSnIrHmDPqpaEAbLK3B1CGztmNOkrvk6LuCGaWZIYn27m7VcoHoypajz0pBkXPMNy6dvMuOEIaufeZplfZ+lZ3mQrH3GevUv+Yxz5GEf+cxypVv7d4wiUt9cJgfFy9t6o4wtD+dTrs3gYxHe4HugJqFwN19Klq4J6lcmx1YeBf8TOUwHzXVtsGAiPbrHaw2PvUX0n6hZacNiEWIOCSqjabDjpYevVe3I1pGcctDVGGxajqqs0LgMtI2ozOor0eapXd8R7veWymeMzCQDoeeYmngJkZhQ7fiZpjj5/s062dmWGK5TsLRkyLka52O5RGG6mylCuizS/zbZr5joi6xR+nj++5eYKiHA/INymyBWQ2jg120Gm3gZ9guYnqbbnCF6L1uEOJtLa+mxTa22ocH83LoOrg2123DcvALQ8rm2nuQGgcV0BufeSugEVsroOihtABXFQgPSMW1a7yEt12AUzLAKbjfpm3SzoXnAGkV6zwipVWo95q9nShri3OlbgvfJM6CrcEZ5JjgqL5T987ngDQn+8fF+5OdzdnT7PbP9vv8foo9O3HL78Aw==);lineShape=1;" vertex="1" parent="1">
          <mxGeometry x="561.6475120857044" y="990.6118476235024" width="103.12057006286129" height="16.828538171748733" as="geometry" />
        </mxCell>
        <mxCell id="ohbaOP87XqiYjv760Opy-170" value="" style="shape=stencil(lVrLchw3DPyavaLAN3l2nP9wleVoK4rkkuUk/nuD2eJ42NzpiW4rLTAD4tEAmnsJH749fvr6cPH67e315c+Hf66f3x4v4beL99fnx4fX65t9uoSPl/Dhy8vrwx+vL9+fP9/+/vqpS/ZPf7383Z/w702vqjTftbz+uP1Hpbb//vH7Tf7p+ryTL0FCnOSd5Hgsn5Oom+S9BD2WT1VcAPmaiHwY5g55MzAcy8cqcbY/ihYiH8Q5kG/EnlAlzPJJGrEnRHFlki+insirlFm+iif22OPSLN8kk+fb8TzE142I3FdwS0J4KeQNrqJFLkpgCllCmhXMpyTn+vPmGLgimQTZLA55VmgSK1FQzKLuBhKGilE7SdMiEaomSSQ+yuLqLG9xJwdI4ueqt7SopCzNo/Pzg6dlY1U52295HkjIAoY4ZMnEfqtKkG+irCyHtVsVO0nUHp1RKBpMUHkP8lkSK/vx9k2+SsvUn7P/k6M1EwcobPKB5kOUOtuTkhRy3iRpzp9UaP7kxZ4mibSZLG1G9ezEk3wrw9pN3ksj9hgG6SwfJbljeYODOX+ynYgDRJoTIltjYyDnJM4KRUfnPMKsOGNWcbRzuyAFFMJApfsKCUGlJMkkSQ2o8xzlYjjGTFpaQWnUrTacZOh+fFxZC796CqSW2XXOjGq1Rw7doR0UEj1DcMsZTrAujq83hcpnhDJyf1NodEiIivDSdDSgo6kIDt3cSMf7ChnTu3k+pzWcu1qgHccAMSsqsDnEELHNmNEi9VJaIt1suCWHzoa5GRXosGxNAOKQ6bRc4kD1nQId38tiUhlVfh8oA3Z+U8jkDZabeW4NzZCPnMHC5AsqsNSwr4t/j5dMAbqtKSSSS6agi0IluWQ+wTMUit6/LN7HgR06YQftCiRbezL7xSQSOItDWNzKVh2r4Lx4qbAz+OUMefTVQwVFBc8i7Ue/2VUcW786qCwKhWcrokaik57FYVWIBATsiLrATGRxKHcU2HBrCnUxqbBsraNn7t3K3rBCpQWOv2HNJbaBmYJfk48fOi3JR9M7LyYVDmRp6UCnJYomFTokWvKtb1BeDxjpPDazI4WweCmRHmcKbulAnsHMexWc6pLfFnxm09Y/NoU2HHfkV5jWdy+93+VsXV5eURgBEBcoa5QxKBVXGjtWZZRBWrpcpV2ueFziGueScsOtydKPoasNQLDG9UbJZrI6Fox9+pE39LUWGi/fUZIiX2gKjo26FXPDypYtNTbqOogD37NsmI5QEZ66tY/rEDg3BscjUtKBAl+bQsLxxBKedYhOB82HtjkwMtqwjRVmUyh0vvcZKZnKI+2X1l4jTT5bLv2cfLYrsnnGlWVXdBTwbaPGBXkrqaOdPc9nsAGeruB+tNndzs4A3y18crGi5UwIsAieIyWODkVpvRVEsbx1+gOmaGVmIrtgwAkx23rN6n+kwCYf6HkDrnDZDXL5/zGHqVE2wCMGd+aNsTjIxHZmj7VbXBsMYpl/dFzP7JlJUgM6eLY980nsUeybnVmlz4dh4YS5VQSuE2ZYEUo780xAQnGrCplyAFaPwLRHPh7h1UVw1J8LQPgTZL9zs0CZHqz3ftdA7Fn4tv5G8vyC+WMecGzuR+LJNcokdyJ2NshgnnUyw2hAoA7znFctMwS5QNv3nRszG9NZr3SLglIurF9qwoAgjiVRRdQqg1w+4jxhCc7Up1YjcKmYaNCsZgPc79BWH/N6a0yT1OPi5ekMmMpSNRSErAcpXHFSYsR6LtySK+3yNmbA4KEUtKoibX6yDil21VN5YKhP7HGDUt/JM9ZyIYOVDmYmD3uy0qGjOlxslF//eoyvUhCtHruY0lWu24/PZxDU/eNAnq0o3f943sr8885flZzL24dfP2H5cn16uv0CZv89/uTF/nX7uUz4+BM=);lineShape=1;" vertex="1" parent="1">
          <mxGeometry x="624.6781549830889" y="1045.89691296224" width="43.99480207623825" height="166.94057301345856" as="geometry" />
        </mxCell>
        <mxCell id="ohbaOP87XqiYjv760Opy-171" value="" style="shape=stencil(7VnLchw3DPyavaJIgi+cHec/XGU52rIsuWTFj78PJhvOLntmWnFVDjn4JnHRMyAINJqYk775cv/u890phS8vz08f776d37/cn/S3U0rnx/u75/OL/3XStyd98+Hp+e6P56c/H99f/v/8brFc/vr09HV5wvcLzrpYXlAp/PhnxaSHv1d+vwAezo+3gCIhzQCVGAkgioUJ0E2SHgN6lzi71MtY2QeodABEyf0Y0EximwCtSSF7aFkSAHTsahdQTfLskq9YIYAsrc+AKsoAQUqdAYm6VCqedHEnjQBU2rxpfwQ76RKkxxmQpNVjQO4SygTIHiXyhlxE5z3kOuK2D3AHbAZkiYkAguR50zlKI2HVPpJ5AHylkzdolTC75CvK3uAezwXkK5kUkCbRuUR9pZOwqucSuBSkkYpLJmHO1uvKPqBJnaPkK4XsIVVJ86Z9JZA9JB0lvwK8aMk5pCAVAJ4s5A3RszUgIJM3xCIpbgCkHqL/vAEUQgImdeNRJR5VrIbFnpWP1IgxpamKiZc8ZuyUxaB2VAo7MyRJLTztkCO91FjlJKR5bbSRRKRUr/1I7UtHe/78lNBeSQI5AW/876SONz1E1yZxYK8R489KJgyuvWEu1voDagsnrkJaVMCK1DUCR/ZzfLyC2Hm5/3O9ePh/xtwpi54WNDN95bDqbO7ZR3MnzOaOZ9wzBNDVnNItRj7Qtrry3tXciDPerqBbSCY0qNhR81BfB+bQWipNYpe3s0ixkaVHnDabx0jVa0KO9S7QyWbTyNjVXqmyXOXLap+psNxwzvJ8WoPAye6/kfgEVMYen0TTHvSV0XAGlPZ15NLR02fvM224YbSna2Jyc7j6RNoO4ziYm6KiJ9WxwgNpzgnJOwz1cNRrIQ+kkzTQDXVLYxoVs7gMKfBfmP/SFb90xf9bVwTob51elMOmH8ZxJ/x3+ewcXkj8/Vo9+x8DvelXfL5RbdFRF7k5if7mVmODivaTOeJpuT2jzc0ty8a1aN9ecaxhtEEv174E9myoEetG2HHttVxEKwJoozApAQFKtpw2IY2BDpfSJqZ+Kp0xqGJKvyIbPEeBQ13HUI6uIwtWQOEjh47SITbO6jYu2yvA6EBAI042F+YmvOI01aDwlQrnZTIEN/w6uOloGlXApc6HS33U7sqNkfaOvCEvd5KRUV7nyTfdhinWXHCS4+9kkjJ3FFr+TiVRKn5w8x5ylURcKhkHZNlGj94HNJwVlURZo4Yxpr+Zziayh1qwpovRyWY1DGvVoZaPpuSQfLXRNtjWclnH6oH2wZ7xpufvrGTTvePFs3U6wbKNVOvrNHUfULCAeqVzRzOcMBsfwjkA+oMpZT4zHPM5gEXJAXBPsTz4/BAAeyi0HmLYSCqrtGctrwCN0eg0ZQEkBLCOsnzogr7eXz0I2LXxZNr03eVoCDEtz0sIYEMe/xmI6SbS+4if/uD3OsD/uH5f/HB+eLh8nrz9Hb9H+tLlW6a+/Qs=);lineShape=1;" vertex="1" parent="1">
          <mxGeometry x="560.5486187782444" y="1202.1026075648865" width="94.87255836144686" height="19.98183777201181" as="geometry" />
        </mxCell>
        <mxCell id="ohbaOP87XqiYjv760Opy-172" value="" style="shape=stencil(lVZBctswDHyNrhiSoEjwnKb/yEzsWlPXzjhOk/w+UFXKBmVv7JtEYSkssFiy44fXzdPLqgvu9XjY/169D8/HTcc/uhCG3WZ1GI761PFjxw/r/WH167B/2z1P7y9PY+T49Gf/d9zhY8J5R55HVHCf/1cKefm38nMCbIfdGYA99WIAwROH64AYKUj7B+mvAyRT7A3AkYCMin4OTXxA8ZFcMvFMBcUnkmgJzDW4DJDKby5RoFAAoFBxNqNIBQMkG0AUYlBTTSlbzsl9RzoVA8hKOgIA1ybNAKHCsG3JKk8CMSCtugiWg+CUJJK3jcuJYgYA3c+STpky4JAXfegTBTAMeR6uuXFck7wGaMdt/uc1Ds5Og88kDgCYuCkrNABJbXwgh7pQWiU5ciAfFVJD4Jvh6auQT/mnBEeh9SOhiJStBGyTWaULmuzdzPCsywUg9BfBKlV1VFBO6pGWRFIDQNMWF+OZsKt6yjYlVVZGfbsXsDwYtAyIw/Lo0TIIaPWFw81h8eVWq6OXg5T66lhzvK6A6VzOWqmHy2UG1X7OPBJZnmsNLGPhLYSaIkVQ0UV8HynD/Zt8Yl9N/Da+nOopcVs91R0Z1GfRL91B/B16UEbonL37OnUDQB9Ot7f1sN1Ol7/z7+1tT5emmyI/fgE=);lineShape=1;" vertex="1" parent="1">
          <mxGeometry x="354.9142508602049" y="1229.0538258167421" width="10.719747300600526" height="2.706558338180306" as="geometry" />
        </mxCell>
        <mxCell id="ohbaOP87XqiYjv760Opy-173" value="" style="shape=stencil(nVjZctswDPwavWLAm3xO0//ITJzaU9fOOE6Pvy80GroC6K6avungijgWC1BTeHjbP73uJs9v18v56+7H4fm6n8KnyfvDab+7HK5yNYXHKTy8nC+7L5fz++l5uX99mlfOV9/O3+cv/FxwzlPkGeX51/LEk1sefF7WHw8nvZ6TWl8pJLDeUfFqvUvkEUA20ADPxA3u0IoGJKoOm9QUIMgnPARkAyjUMt6hKkAMlLBJLWhApYqj1JwCpEAB+RDJG0DBeUiUdR4y90DfBxTirAGRAgLUHpMboFAOANBslArDKPlIWeehZHIAIERI2ofKVIBJkclpatTYw3AXkIQa2umayYOCy9kWUJW4gbA2+Z52uknugQ9NKngAtAoAjbKOUku4gFhKWKuMWNlAImSLYLYokH3yupodpIJAIsTkaLxulCIA+MHrBr2urbN5DQBxFSYYnRFAAbIhXHPFAhxIdfUUgo1SAOyrrqv7Kg9IZ2ZAtJn2yGnfDViRyQO9n502PkSKINNzWI0PgSoyqfUCWwEyiNJMDTcAEL2FfNH6wKhGC5VsAQWZ1IY8JEqojd6t0QzYN8uAqSDRb1RBlaIJk0gZEprcubbid0A7hG7AClBRXNkCVnG4T47ywS2Ery0NTgByfBiQ6iA0EdacTCPeENzBNufL0BdFN9BAk+18UkNny/1E9Jq/dWrRe9QWKWoPSoRSKW/NekcRlIMohF6fK2yigdjMMhHa73vTv60Xe1ALpag5IeMbKk4ZjDRLZT5MwH628Yy4fbKdDjcmXLZjz8YIzVZRN2Z0sV+XwMYhgO3Ms3HKYKt1G8cYtn0TH5MG7cWnMJk6jTWwPw3Bd+Qg10yxM2w13oaG++z2l0o0rjI0JlniY3nOVjs31NyefrExzc7i2FU3VCGO5HjQ3EiUqIif/p0H/3HY31gvF3/+LLwcjsflx8T6vf0TIY+Wvxjh8Tc=);lineShape=1;" vertex="1" parent="1">
          <mxGeometry x="353.78218529518426" y="1231.1219625739159" width="14.266993418475977" height="41.74792643433042" as="geometry" />
        </mxCell>
        <mxCell id="ohbaOP87XqiYjv760Opy-174" value="" style="shape=stencil(nVrZchw3DPyafWWRBM9nx/kPV1mOtqJILlnO8fdpZoujITDTW8qbtIsmQQJoHNyLfPrx+OX7wyX6H2+vL78//HX9+vZ4kV8uMV6fHx9er2/46yKfL/Lp28vrw2+vLz+fv97+//5lSI6//nj5c6zw9w1Xugt+oKL/5/aJdy3+98GvN/mn6/NePrkeF/ngshD54GJa5KOL+Vw+Q5+g5Gsn8sXFusiLS0SfLC7KIp9caETeu9CVfC/n8qk6WfXJrpL1U3Jlvc/iKls/uLauX6dBDuUF97met7tI1pfi/Hre4F33BCDawAEWSwSAG1WA5BrZATfSVhcN1XmyA1ygrHcUukvE6eDzRTldcJ0AoEBdbxVuwdwuZOdXlXAqukN0Ja8AnIEcGmaS1ZEEZwjngOZSW+XTXOFQvmpHgqtUYrbsmpLv1GpwgvXAcHWh8n71iiTc71xcbZwKNVl0WQV+p/rEySNb4EeXSKRF51d9cqb3CXm1fp8rnOm/hlmJTsh5xYWyyucZRmf3v+pfmmvkvFnrX4MrhBlhndW+NU0qPvFnRVx1W+EsYFTmq42yBEJS1hM0P8n+GJAm9W8AJD+mEpLHaoMGn2Y79MnNGyBTeh9esbJEK/OTY0DW+a/VSZbHgGpUaq4wv/Pz6w3QXb6TcVam6J7ntKxVAoBRo0Dj1Q4dvkpUAlVltUOcdcZZ2leWBoDlcdQVYU0gXagdwFZVAXj8gK5i1ABGqDlpX+qZujdqtRY0oLAdwHCqeEF5wqrToKtBAFiIFpnV6w5Q2Q7wJQWoMxEdA5rmYQAiUQm0qF2jziWOAcnFpgGshq/QWO3Q5kUfA/pcbweIZAfwXG4awMj4nbZ2AMZLYKFqVCoEgJC3h2b5FgEZzA7MNUZ8yYcARVfC9wDdkAAOTWK6m9J5XCtJun2rifaGIzQDQDQARgIDoK4VGYOfIQUNYC3ViGATD4wqR0B2DUhsB8SX2SExwzWTHyotPmFp1S8MEmBn6Ac0U0g1A0AzNNNog+F1xT1og2/RjX+zRA1AsbTBAZY2KAu0A9qgIdeOWICptNlpD2CmLnOgsD8DB2hT45ZIRulmRjLscAdgLc0OXWZrsXcm5hplJv69u/JrDYYFWIIY69kYJf497sSyAHeN9jHa6LqlGUoyrvwfANXE7aL2NAepe+10wIUs57MBsHsNhgU6H0z0mdN2AOZMqAW093VauTYzaxjMQ0IO9YymPpiGJC1UTDrLdSfEDtW0u32bhB4DxKSUzR+PAd6UupwrS9WjSQCE2GHMhj9EG8W2HJVyZe6GK7eW+RhgWaBQ987ZVN+FDriz6LnG6FHYhNtP39x1QWyH1IxKd2bQ2SS5REc/KZprFRoPyUzFR/tKDi3VJOo4u5ZjAJpLFaLosUnOkmB6FE/rmWhD1NMuaEykVsM1HqJ2Dt3aLOvO5tB6dlIot4amh45opFhMh6xjGlwYGMC4xujt+FhN0UzztBBtutao7c5cUKU4UGcmvJdmEt/NEdmcW8wcMdB2w8xx0fF39hRwMGdlFai5zzHHJdHvdedwZ05sqnpQIOsp/dGcm+tv5uiRrB90WKZCz2vuPwn1t6gf0NL2RHniD6pPkkbLl6ztK/BPlgR1NQ/qC6x40e0wmI/ZK5h8M5iPHCCItnDkLz0gFXVF41GVHBm0VdXjVqBvDfhaPSYFUC8zcpozhQ2AMzCubvr5LCTaeuLWFa+M9wFiB0m6SoVlWA2JnClq9D5v4TQpqxcWOmNAnKjIL3Ryk4yZM3VU1C1VP52zlJ9NBhd6PznpxiLSQEAtWJWb0mxc7EM1D2TRUyFP37WRJ9T9e1o4Qj7q9Rmxj8lz1fJcn2bk2fpd388d/bt+P/O0fIK80Z89YEC+BiXPEk0xLySeBvCQL0qe+Wcxfaynhco4b1bytBDqsxt7l2eTqQ//1OeuPP54/13Rt+vT0+1nSfvv9e+Q8NHtN0zy+V8=);lineShape=1;" vertex="1" parent="1">
          <mxGeometry x="303.7523395709595" y="1245.8514917496964" width="66.49231494771387" height="188.71629719310963" as="geometry" />
        </mxCell>
        <mxCell id="ohbaOP87XqiYjv760Opy-175" value="" style="shape=stencil(7VrJchw3DP2auaK4gCR4dpz/cJXlaCqK5JLlLH8fMBN2msD06zinHHwbtfiaIJZHLH3J7748fvj8cEnhy9vry88Pv10/vj1e8g+XlK7Pjw+v1zf9dcnvL/ndp5fXh59eX74+f7z9/fnDWDl+/fLy63jD7zdcIOYBSuGP+SCEvx78eFv+dH3eLc/EsiyP1Ph4uVCsy/JCNR8vj5GkLOs7hQLWV0ptFUcFBOKruGEVKApxBIBCEhaAqqAKUJAqNK0AIQE7ZJ4anICsOyCAUMkrQCikYwA7reqT3gGAp8QboFABInGzh2YVEmiJO8lquBIpAkBJ1tJFtQQsXZhqXwGFOnDVUqmvZyiNOhJJqBvn7tC7ayBZdxhPgHvXRMUA1JTAcJUprq4xXoEAhdqq1popIpEaZQeoCKBaWgNoCAm8tYUZwTsAOkPbdLIBCmSNlik5wN9quA9gG3FViQf4UvNqrdD5mv57DVFVdAPu3WQqcQMINaSlTnkFqKIDou5gD62KzhUA4pR4AyRIlZJI1stELdOA4YQpGICSJ4g4KZSMSHoBAecTtavZoc4b7z6gObU26HwilKMFIG6Vbr1VAR0cugdKqy+ps2Rg6a7U2yygAS31ZG9R9a4IzqAAcYCEdtjIfQ9AO7BTa4dE1su8M3eAAAJIAc3tEJAdqr3jVK0BBFBvbocCY7qLTU40gARZuhMXuwNUq97T2Z6hAF5SQF+9VaM8gACKYUs4N4SGHNJrn1S6JYlhBuERoK0yqWkQ9Q1AsoCO1VRX/1ZbClZTWX2j44RpWM4cWgMCa8nQxjgVFsncKEPRyF3F2mFnyyOEuRaHfyHLiaWBoQcMYKdXGBEy77QdIOIzWL22ybeHALNDpYwsJzbVVepBRY0K0FeAKH3iQ9uQS2dqjQYQv/EMmk4wdiZTWCq7wpCTO3SMkgfvrmMHkPWNgGB7hoIB2WmJTwCOLFFRM7x/PbRaGhWXY4eV8DUlgiG6scqOjeEtt1XoOwCkPrFXiuZQkMkcCQwA9iVTo8gJfcusPXeAhM8Q2KoV3qNbKbkBGF9BHpDOqNLkZOp8FTmfTIl37g2zPrGFmQJgPiOzHN6HKAb4NBEVyMP5xIoEeanb3Fi1FHEqYH0pnWVMPkQhe/8HwPfs5Ht28r/KTjC5mppDq0FoarHeNwqCk1TAsQDkmeYAGVc1bZa3O/pGrb5eXVAXbAdXXSqAT+pXB8iI79llJ2U2O45qcGuHMtv5h1W+0xLqoPZou16ydW2PAPaS49m7OOqFmAHESI1Rx0h5plsAaguIv0bTbJwddYwsIM4W6VFPyjR1JcJDjxTPHDrA5roe0dhhNE9w5665tgAExNnj+rdtsmCZb3TuUI92a/fseoOIyJqrmlqGKVmrk6t3DVFBO5TZ/ty1XJGlVWKuFhDQofPsom1d4A5zh+ZGQVVgxDVnBwWgm726HG50sgFrVNdB1SfpZGZhABW2ySpPJe4ACdzTNdl0puL5Vw12hlcZlrtFnB0yVGupttVXIyxGC1Nx0ynESyXZcre0yYV3AdwtCeieyNLc3AwvweSbeY6WJoA7bCZytEO/MbgEImVNsNYQHa9A8+9tFjUBucF6IAc7UcgJtjfHiHw1XGqwvZmCHVymk5ZrtZaODY7kYrQRFxNkPlcedzhEybaw3JKhu8uD7WkwzImDzXAzHH4H2wvIcDYYbGcsT+44WG66JfjOCTbJS7AOc6107Aju7REOWoO1aoRe4zQTTqxqhlABprNuyBVmlnTkM+4zFyjMN30Vc7pcf/zzAc6n69PT7fud/f/tBzv66PaxT37/Jw==);lineShape=1;" vertex="1" parent="1">
          <mxGeometry x="185.91204927363447" y="1425.9161005928631" width="191.29532786684103" height="36.5796873646074" as="geometry" />
        </mxCell>
      </root>
    </mxGraphModel>
  </diagram>
</mxfile>
